<?xml version="1.0" encoding="UTF-8" standalone="no"?>
<svg
   xmlns:dc="http://purl.org/dc/elements/1.1/"
   xmlns:cc="http://creativecommons.org/ns#"
   xmlns:rdf="http://www.w3.org/1999/02/22-rdf-syntax-ns#"
   xmlns:svg="http://www.w3.org/2000/svg"
   xmlns="http://www.w3.org/2000/svg"
   xmlns:sodipodi="http://sodipodi.sourceforge.net/DTD/sodipodi-0.dtd"
   xmlns:inkscape="http://www.inkscape.org/namespaces/inkscape"
   width="402.25473mm"
   height="401.13223mm"
   viewBox="0 0 1140.5206 1137.3373"
   version="1.2"
   id="svg3236"
   sodipodi:docname="bcc.svg"
   inkscape:version="0.92.5 (2060ec1f9f, 2020-04-08)">
  <metadata
     id="metadata3240">
    <rdf:RDF>
      <cc:Work
         rdf:about="">
        <dc:format>image/svg+xml</dc:format>
        <dc:type
           rdf:resource="http://purl.org/dc/dcmitype/StillImage" />
        <dc:title />
        <dc:creator>
          <cc:Agent>
            <dc:title>tweber</dc:title>
          </cc:Agent>
        </dc:creator>
      </cc:Work>
    </rdf:RDF>
  </metadata>
  <sodipodi:namedview
     pagecolor="#ffffff"
     bordercolor="#666666"
     borderopacity="1"
     objecttolerance="10"
     gridtolerance="10"
     guidetolerance="10"
     inkscape:pageopacity="0"
     inkscape:pageshadow="2"
     inkscape:window-width="1981"
     inkscape:window-height="1369"
     id="namedview3238"
     showgrid="false"
     inkscape:zoom="0.37077723"
     inkscape:cx="1444.5567"
     inkscape:cy="242.96024"
     inkscape:window-x="1042"
     inkscape:window-y="562"
     inkscape:window-maximized="0"
     inkscape:current-layer="svg3236"
     fit-margin-top="0"
     fit-margin-left="0"
     fit-margin-right="0"
     fit-margin-bottom="0" />
  <desc
     id="desc4">Created with Takin (https://dx.doi.org/10.5281/zenodo.4117437)</desc>
  <defs
     id="defs6" />
  <path
     d="m 380.1748,568.67282 -188.5,188.49 -188.4919967,-188.49 188.4919967,-188.5 188.5,188.5"
     id="path384"
     inkscape:connector-curvature="0"
     style="font-style:normal;font-weight:400;font-size:10px;font-family:'DejaVu Sans';vector-effect:none;fill:none;fill-rule:evenodd;stroke:#000000;stroke-width:9.00213623;stroke-linecap:square;stroke-linejoin:bevel;stroke-miterlimit:4;stroke-dasharray:none;stroke-opacity:1" />
  <path
     d="m 568.6648,757.16282 -188.49,188.5 -188.5,-188.5 188.5,-188.49 188.49,188.49"
     id="path404"
     inkscape:connector-curvature="0"
     style="font-style:normal;font-weight:400;font-size:10px;font-family:'DejaVu Sans';vector-effect:none;fill:none;fill-rule:evenodd;stroke:#000000;stroke-width:9.00213623;stroke-linecap:square;stroke-linejoin:bevel;stroke-miterlimit:4;stroke-dasharray:none;stroke-opacity:1" />
  <path
     d="m 568.6648,380.17282 -188.49,188.5 -188.5,-188.5 188.5,-188.5 188.49,188.5"
     id="path406"
     inkscape:connector-curvature="0"
     style="font-style:normal;font-weight:400;font-size:10px;font-family:'DejaVu Sans';vector-effect:none;fill:none;fill-rule:evenodd;stroke:#000000;stroke-width:9.00213623;stroke-linecap:square;stroke-linejoin:bevel;stroke-miterlimit:4;stroke-dasharray:none;stroke-opacity:1" />
  <path
     d="m 757.1648,945.66282 -188.5,188.49198 -188.49,-188.49198 188.49,-188.5 188.5,188.5"
     id="path424"
     inkscape:connector-curvature="0"
     style="font-style:normal;font-weight:400;font-size:10px;font-family:'DejaVu Sans';vector-effect:none;fill:none;fill-rule:evenodd;stroke:#000000;stroke-width:9.00213623;stroke-linecap:square;stroke-linejoin:bevel;stroke-miterlimit:4;stroke-dasharray:none;stroke-opacity:1" />
  <path
     d="m 757.1648,568.67282 -188.5,188.49 -188.49,-188.49 188.49,-188.5 188.5,188.5"
     id="path426"
     inkscape:connector-curvature="0"
     style="font-style:normal;font-weight:400;font-size:10px;font-family:'DejaVu Sans';vector-effect:none;fill:none;fill-rule:evenodd;stroke:#000000;stroke-width:9.00213623;stroke-linecap:square;stroke-linejoin:bevel;stroke-miterlimit:4;stroke-dasharray:none;stroke-opacity:1" />
  <path
     d="m 757.1648,191.67282 -188.5,188.5 -188.49,-188.5 188.49,-188.4899998 188.5,188.4899998"
     id="path428"
     inkscape:connector-curvature="0"
     style="font-style:normal;font-weight:400;font-size:10px;font-family:'DejaVu Sans';vector-effect:none;fill:none;fill-rule:evenodd;stroke:#000000;stroke-width:9.00213623;stroke-linecap:square;stroke-linejoin:bevel;stroke-miterlimit:4;stroke-dasharray:none;stroke-opacity:1" />
  <path
     d="m 945.6648,757.16282 -188.5,188.5 -188.5,-188.5 188.5,-188.49 188.5,188.49"
     id="path446"
     inkscape:connector-curvature="0"
     style="font-style:normal;font-weight:400;font-size:10px;font-family:'DejaVu Sans';vector-effect:none;fill:none;fill-rule:evenodd;stroke:#000000;stroke-width:9.00213623;stroke-linecap:square;stroke-linejoin:bevel;stroke-miterlimit:4;stroke-dasharray:none;stroke-opacity:1" />
  <path
     d="m 945.6648,380.17282 -188.5,188.5 -188.5,-188.5 188.5,-188.5 188.5,188.5"
     id="path448"
     inkscape:connector-curvature="0"
     style="font-style:normal;font-weight:400;font-size:10px;font-family:'DejaVu Sans';vector-effect:none;fill:none;fill-rule:evenodd;stroke:#000000;stroke-width:9.00213623;stroke-linecap:square;stroke-linejoin:bevel;stroke-miterlimit:4;stroke-dasharray:none;stroke-opacity:1" />
  <path
     d="m 1134.1548,568.67282 -188.49,188.49 -188.5,-188.49 188.5,-188.5 188.49,188.5"
     id="path468"
     inkscape:connector-curvature="0"
     style="font-style:normal;font-weight:400;font-size:10px;font-family:'DejaVu Sans';vector-effect:none;fill:none;fill-rule:evenodd;stroke:#000000;stroke-width:9.00213623;stroke-linecap:square;stroke-linejoin:bevel;stroke-miterlimit:4;stroke-dasharray:none;stroke-opacity:1" />
  <g
     style="font-style:normal;font-weight:400;font-size:10px;font-family:'DejaVu Sans';fill:#ff0000;fill-opacity:1;fill-rule:evenodd;stroke:#000000;stroke-width:9.00213623;stroke-linecap:square;stroke-linejoin:bevel;stroke-miterlimit:4;stroke-dasharray:none;stroke-opacity:1"
     id="g2708"
     font-style="normal"
     font-weight="400"
     font-size="10"
     transform="translate(191.4048,569.03182)">
    <circle
       id="circle2706"
       r="1"
       cy="0"
       cx="0"
       style="stroke:#000000;stroke-width:9.00213623;stroke-miterlimit:4;stroke-dasharray:none;stroke-opacity:1" />
  </g>
  <g
     style="font-style:normal;font-weight:400;font-size:10px;font-family:'DejaVu Sans';fill:#ff0000;fill-opacity:1;fill-rule:evenodd;stroke:#000000;stroke-width:9.00213623;stroke-linecap:square;stroke-linejoin:bevel;stroke-miterlimit:4;stroke-dasharray:none;stroke-opacity:1"
     id="g2828"
     font-style="normal"
     font-weight="400"
     font-size="10"
     transform="translate(379.8548,757.48182)">
    <circle
       id="circle2826"
       r="1"
       cy="0"
       cx="0"
       style="stroke:#000000;stroke-width:9.00213623;stroke-miterlimit:4;stroke-dasharray:none;stroke-opacity:1" />
  </g>
  <g
     style="font-style:normal;font-weight:400;font-size:10px;font-family:'DejaVu Sans';fill:#ff0000;fill-opacity:1;fill-rule:evenodd;stroke:#000000;stroke-width:9.00213623;stroke-linecap:square;stroke-linejoin:bevel;stroke-miterlimit:4;stroke-dasharray:none;stroke-opacity:1"
     id="g2840"
     font-style="normal"
     font-weight="400"
     font-size="10"
     transform="translate(379.8548,380.58082)">
    <circle
       id="circle2838"
       r="1"
       cy="0"
       cx="0"
       style="stroke:#000000;stroke-width:9.00213623;stroke-miterlimit:4;stroke-dasharray:none;stroke-opacity:1" />
  </g>
  <g
     style="font-style:normal;font-weight:400;font-size:10px;font-family:'DejaVu Sans';fill:#ff0000;fill-opacity:1;fill-rule:evenodd;stroke:#000000;stroke-width:9.00213623;stroke-linecap:square;stroke-linejoin:bevel;stroke-miterlimit:4;stroke-dasharray:none;stroke-opacity:1"
     id="g2948"
     font-style="normal"
     font-weight="400"
     font-size="10"
     transform="translate(568.3048,945.93282)">
    <circle
       id="circle2946"
       r="1"
       cy="0"
       cx="0"
       style="stroke:#000000;stroke-width:9.00213623;stroke-miterlimit:4;stroke-dasharray:none;stroke-opacity:1" />
  </g>
  <g
     style="font-style:normal;font-weight:400;font-size:10px;font-family:'DejaVu Sans';fill:#ff0000;fill-opacity:1;fill-rule:evenodd;stroke:#000000;stroke-width:9.00213623;stroke-linecap:square;stroke-linejoin:bevel;stroke-miterlimit:4;stroke-dasharray:none;stroke-opacity:1"
     id="g2960"
     font-style="normal"
     font-weight="400"
     font-size="10"
     transform="translate(568.3048,569.03182)">
    <circle
       id="circle2958"
       r="1"
       cy="0"
       cx="0"
       style="stroke:#000000;stroke-width:9.00213623;stroke-miterlimit:4;stroke-dasharray:none;stroke-opacity:1" />
  </g>
  <g
     style="font-style:normal;font-weight:400;font-size:10px;font-family:'DejaVu Sans';fill:#ff0000;fill-opacity:1;fill-rule:evenodd;stroke:#000000;stroke-width:9.00213623;stroke-linecap:square;stroke-linejoin:bevel;stroke-miterlimit:4;stroke-dasharray:none;stroke-opacity:1"
     id="g2972"
     font-style="normal"
     font-weight="400"
     font-size="10"
     transform="translate(568.3048,192.13043)">
    <circle
       id="circle2970"
       r="1"
       cy="0"
       cx="0"
       style="stroke:#000000;stroke-width:9.00213623;stroke-miterlimit:4;stroke-dasharray:none;stroke-opacity:1" />
  </g>
  <g
     style="font-style:normal;font-weight:400;font-size:10px;font-family:'DejaVu Sans';fill:#ff0000;fill-opacity:1;fill-rule:evenodd;stroke:#000000;stroke-width:9.00213623;stroke-linecap:square;stroke-linejoin:bevel;stroke-miterlimit:4;stroke-dasharray:none;stroke-opacity:1"
     id="g3080"
     font-style="normal"
     font-weight="400"
     font-size="10"
     transform="translate(756.7548,757.48182)">
    <circle
       id="circle3078"
       r="1"
       cy="0"
       cx="0"
       style="stroke:#000000;stroke-width:9.00213623;stroke-miterlimit:4;stroke-dasharray:none;stroke-opacity:1" />
  </g>
  <g
     style="font-style:normal;font-weight:400;font-size:10px;font-family:'DejaVu Sans';fill:#ff0000;fill-opacity:1;fill-rule:evenodd;stroke:#000000;stroke-width:9.00213623;stroke-linecap:square;stroke-linejoin:bevel;stroke-miterlimit:4;stroke-dasharray:none;stroke-opacity:1"
     id="g3092"
     font-style="normal"
     font-weight="400"
     font-size="10"
     transform="translate(756.7548,380.58082)">
    <circle
       id="circle3090"
       r="1"
       cy="0"
       cx="0"
       style="stroke:#000000;stroke-width:9.00213623;stroke-miterlimit:4;stroke-dasharray:none;stroke-opacity:1" />
  </g>
  <g
     style="font-style:normal;font-weight:400;font-size:10px;font-family:'DejaVu Sans';fill:#ff0000;fill-opacity:1;fill-rule:evenodd;stroke:#000000;stroke-width:9.00213623;stroke-linecap:square;stroke-linejoin:bevel;stroke-miterlimit:4;stroke-dasharray:none;stroke-opacity:1"
     id="g3212"
     font-style="normal"
     font-weight="400"
     font-size="10"
     transform="translate(945.2048,569.03182)">
    <circle
       id="circle3210"
       r="1"
       cy="0"
       cx="0"
       style="stroke:#000000;stroke-width:9.00213623;stroke-miterlimit:4;stroke-dasharray:none;stroke-opacity:1" />
  </g>
  <path
     style="opacity:1;vector-effect:none;fill:#000000;fill-opacity:1;stroke:#000000;stroke-width:0.95354658;stroke-linecap:square;stroke-linejoin:bevel;stroke-miterlimit:4;stroke-dasharray:none;stroke-dashoffset:0;stroke-opacity:1"
     d="m 756.07399,1265.2848 c -2.06777,-0.7148 -3.38337,-2.8923 -3.0391,-5.03 0.40359,-2.506 2.81357,-4.2602 5.26078,-3.8291 4.1712,0.7348 5.23604,6.1639 1.65262,8.426 -1.05068,0.6632 -2.68128,0.8455 -3.8743,0.4331 z m 2.13268,-3.1344 c 0.45968,-0.2351 0.67207,-0.6101 0.67487,-1.1917 0.008,-1.6077 -2.04128,-1.9307 -2.61659,-0.4125 -0.30535,0.8058 0.3431,1.7374 1.20936,1.7374 0.2596,0 0.58916,-0.06 0.73236,-0.1332 z"
     id="path1296"
     inkscape:connector-curvature="0"
     transform="scale(0.750178)" />
  <path
     style="opacity:1;vector-effect:none;fill:#000000;fill-opacity:1;stroke:#000000;stroke-width:0.95354658;stroke-linecap:square;stroke-linejoin:bevel;stroke-miterlimit:4;stroke-dasharray:none;stroke-dashoffset:0;stroke-opacity:1"
     d="m 757.05277,1261.5598 c -0.59287,-0.4664 -0.26203,-1.4241 0.4905,-1.4199 0.42702,0 0.58377,0.1106 0.73455,0.5072 0.16473,0.4332 -0.0168,0.8922 -0.41239,1.0426 -0.41743,0.1587 -0.45286,0.1531 -0.81266,-0.1299 z"
     id="path1298"
     inkscape:connector-curvature="0"
     transform="scale(0.750178)" />
  <path
     style="opacity:1;vector-effect:none;fill:#000000;fill-opacity:1;stroke:#000000;stroke-width:0.95354658;stroke-linecap:square;stroke-linejoin:bevel;stroke-miterlimit:4;stroke-dasharray:none;stroke-dashoffset:0;stroke-opacity:1"
     d="m 505.73339,1014.2712 c -1.32439,-0.1677 -2.77816,-1.1664 -3.40461,-2.3388 -1.49555,-2.7988 0.16593,-6.1632 3.31788,-6.7184 1.95297,-0.344 3.96368,0.7367 4.8494,2.6064 0.34416,0.7265 0.37964,0.9075 0.37906,1.9339 -5.6e-4,0.9891 -0.0431,1.2243 -0.33628,1.8599 -0.83025,1.7999 -2.83235,2.9069 -4.80545,2.657 z m 1.57849,-3.6111 c 0.31283,-0.3128 0.40526,-0.5044 0.40526,-0.8402 0,-0.611 -0.27424,-1.0717 -0.78109,-1.3122 -0.54932,-0.2607 -1.10988,-0.1674 -1.53224,0.255 -0.8888,0.8888 -0.29709,2.3027 0.96367,2.3027 0.45422,0 0.60298,-0.064 0.9444,-0.4053 z"
     id="path1300"
     inkscape:connector-curvature="0"
     transform="scale(0.750178)" />
  <path
     style="opacity:1;vector-effect:none;fill:#000000;fill-opacity:1;stroke:#000000;stroke-width:0.95354658;stroke-linecap:square;stroke-linejoin:bevel;stroke-miterlimit:4;stroke-dasharray:none;stroke-dashoffset:0;stroke-opacity:1"
     d="m 505.89944,1010.4012 c -0.31863,-0.1728 -0.38865,-0.3396 -0.34392,-0.8194 0.0559,-0.5996 0.95651,-0.9 1.3591,-0.4533 0.3619,0.4016 0.36822,0.7892 0.0186,1.1388 -0.3631,0.3631 -0.56348,0.3891 -1.03376,0.1339 z"
     id="path1302"
     inkscape:connector-curvature="0"
     transform="scale(0.750178)" />
  <path
     style="opacity:1;vector-effect:none;fill:#000000;fill-opacity:1;stroke:#000000;stroke-width:0.95354658;stroke-linecap:square;stroke-linejoin:bevel;stroke-miterlimit:4;stroke-dasharray:none;stroke-dashoffset:0;stroke-opacity:1"
     d="m 253.61708,762.8584 c -0.83821,-0.33613 -1.34965,-0.68621 -1.87581,-1.28396 -2.40118,-2.72789 -0.93127,-6.89698 2.6654,-7.55985 1.70755,-0.3147 3.54034,0.48248 4.52709,1.96907 0.60235,0.90748 0.8174,1.69564 0.76437,2.80135 -0.0808,1.68481 -1.04462,3.11644 -2.60219,3.86525 -0.66506,0.31973 -0.92663,0.37669 -1.84749,0.40232 -0.8248,0.0229 -1.20186,-0.0219 -1.63137,-0.19418 z m 2.47764,-3.39948 c 0.31283,-0.31283 0.40526,-0.50448 0.40526,-0.84028 0,-1.29328 -1.42242,-1.94809 -2.30802,-1.06248 -0.87633,0.87633 -0.27756,2.30801 0.96529,2.30801 0.44634,0 0.5976,-0.0654 0.93747,-0.40525 z"
     id="path1304"
     inkscape:connector-curvature="0"
     transform="scale(0.750178)" />
  <path
     style="opacity:1;vector-effect:none;fill:#000000;fill-opacity:1;stroke:#000000;stroke-width:0.95354658;stroke-linecap:square;stroke-linejoin:bevel;stroke-miterlimit:4;stroke-dasharray:none;stroke-dashoffset:0;stroke-opacity:1"
     d="m 254.77167,759.24497 c -0.33201,-0.18828 -0.41324,-0.33746 -0.41535,-0.76285 -0.005,-1.00138 1.35684,-1.03684 1.60507,-0.0418 0.0582,0.23352 0.001,0.37932 -0.24535,0.62576 -0.34733,0.34733 -0.5722,0.38992 -0.94437,0.17888 z"
     id="path1306"
     inkscape:connector-curvature="0"
     transform="scale(0.750178)" />
  <path
     style="opacity:1;vector-effect:none;fill:#000000;fill-opacity:1;stroke:#000000;stroke-width:0.47677329;stroke-linecap:square;stroke-linejoin:bevel;stroke-miterlimit:4;stroke-dasharray:none;stroke-dashoffset:0;stroke-opacity:1"
     d="m 505.8261,511.9204 c -2.10186,-0.22133 -3.80325,-1.92265 -4.07008,-4.06989 -0.27557,-2.21766 1.17655,-4.37573 3.36301,-4.99791 0.6872,-0.19556 1.83496,-0.19308 2.47612,0.005 1.61833,0.50081 2.77012,1.66236 3.22944,3.25679 0.17597,0.61084 0.18826,1.75291 0.0253,2.34725 -0.61886,2.25665 -2.71738,3.7013 -5.02376,3.45843 z m 1.1598,-3.40658 c 0.28445,-0.13414 0.52332,-0.41204 0.64341,-0.74854 0.17954,-0.50311 0.0625,-0.99439 -0.3305,-1.3874 -0.43992,-0.43992 -0.99322,-0.5334 -1.54113,-0.26037 -0.82936,0.41329 -1.01137,1.44501 -0.37571,2.12974 0.41427,0.44624 1.01218,0.54561 1.60393,0.26657 z"
     id="path1312"
     inkscape:connector-curvature="0"
     transform="scale(0.750178)" />
  <path
     style="opacity:1;vector-effect:none;fill:#000000;fill-opacity:1;stroke:#000000;stroke-width:0.47677329;stroke-linecap:square;stroke-linejoin:bevel;stroke-miterlimit:4;stroke-dasharray:none;stroke-dashoffset:0;stroke-opacity:1"
     d="m 505.88568,508.28999 c -0.42971,-0.19509 -0.68321,-0.72255 -0.58889,-1.22532 0.0965,-0.51435 0.78363,-0.93939 1.29573,-0.8015 0.26739,0.072 0.61121,0.35482 0.74436,0.61232 0.11874,0.22962 0.11988,0.68384 0.002,0.90912 -0.28271,0.54157 -0.90058,0.75641 -1.45348,0.50538 z"
     id="path1314"
     inkscape:connector-curvature="0"
     transform="scale(0.750178)" />
  <path
     style="opacity:1;vector-effect:none;fill:#000000;fill-opacity:1;stroke:#000000;stroke-width:0.95354658;stroke-linecap:square;stroke-linejoin:bevel;stroke-miterlimit:4;stroke-dasharray:none;stroke-dashoffset:0;stroke-opacity:1"
     d="m 756.37513,260.5351 c -2.01192,-0.54143 -3.37698,-2.32614 -3.36752,-4.40276 0.009,-1.88005 0.94011,-3.35221 2.63038,-4.15686 3.26598,-1.55478 7.0186,1.25485 6.44372,4.82449 -0.29609,1.83857 -1.59532,3.26652 -3.39954,3.73633 -0.86178,0.22441 -1.46986,0.22409 -2.30704,-10e-4 z m 2.13531,-3.46053 c 0.92091,-0.88228 0.28322,-2.31295 -1.03095,-2.31295 -0.64641,0 -1.24553,0.62872 -1.24553,1.30704 0,0.61992 0.1494,0.90502 0.63337,1.20866 0.51043,0.32024 1.18398,0.23713 1.64311,-0.20275 z"
     id="path1316"
     inkscape:connector-curvature="0"
     transform="scale(0.750178)" />
  <path
     style="opacity:1;vector-effect:none;fill:#000000;fill-opacity:1;stroke:#000000;stroke-width:0.95354658;stroke-linecap:square;stroke-linejoin:bevel;stroke-miterlimit:4;stroke-dasharray:none;stroke-dashoffset:0;stroke-opacity:1"
     d="m 757.00765,256.74228 c -0.2865,-0.2095 -0.30372,-0.9522 -0.0285,-1.22747 0.46548,-0.46548 1.40024,-0.0807 1.40024,0.57641 0,0.66745 -0.81827,1.0558 -1.37179,0.65106 z"
     id="path1318"
     inkscape:connector-curvature="0"
     transform="scale(0.750178)" />
  <path
     style="opacity:1;vector-effect:none;fill:#000000;fill-opacity:1;stroke:#000000;stroke-width:0.47677329;stroke-linecap:square;stroke-linejoin:bevel;stroke-miterlimit:4;stroke-dasharray:none;stroke-dashoffset:0;stroke-opacity:1"
     d="m 1008.1405,1014.3359 c -0.7369,-0.1239 -1.5881,-0.4785 -2.1566,-0.8985 -0.718,-0.5304 -1.3485,-1.42 -1.6361,-2.3083 -0.2258,-0.6972 -0.2613,-1.7074 -0.086,-2.441 0.629,-2.6302 3.3724,-4.1918 5.91,-3.3641 2.8544,0.931 4.0944,4.2523 2.5489,6.827 -0.4804,0.8002 -1.3621,1.5406 -2.2415,1.882 -0.7429,0.2885 -1.6927,0.4115 -2.3388,0.3029 z m 1.0799,-3.3285 c 0.5254,-0.1853 0.8831,-0.6968 0.8855,-1.2658 0,-0.7783 -0.5608,-1.3444 -1.3396,-1.3444 -0.7788,0 -1.3429,0.5661 -1.3396,1.3444 0,0.9393 0.909,1.578 1.7937,1.2658 z"
     id="path1320"
     inkscape:connector-curvature="0"
     transform="scale(0.750178)" />
  <path
     style="opacity:1;vector-effect:none;fill:#000000;fill-opacity:1;stroke:#000000;stroke-width:0.47677329;stroke-linecap:square;stroke-linejoin:bevel;stroke-miterlimit:4;stroke-dasharray:none;stroke-dashoffset:0;stroke-opacity:1"
     d="m 1008.2896,1010.7075 c -0.4126,-0.2152 -0.5855,-0.5042 -0.5855,-0.9789 0,-0.4993 0.1918,-0.7978 0.6304,-0.981 0.8253,-0.3449 1.6635,0.3472 1.4694,1.2133 -0.1193,0.5321 -0.5038,0.8408 -1.0466,0.8401 -0.159,-2e-4 -0.3694,-0.042 -0.4677,-0.094 z"
     id="path1322"
     inkscape:connector-curvature="0"
     transform="scale(0.750178)" />
  <path
     style="opacity:1;vector-effect:none;fill:#000000;fill-opacity:1;stroke:#000000;stroke-width:0.47677329;stroke-linecap:square;stroke-linejoin:bevel;stroke-miterlimit:4;stroke-dasharray:none;stroke-dashoffset:0;stroke-opacity:1"
     d="m 756.91529,763.12251 c -1.83489,-0.2919 -3.31548,-1.5958 -3.82414,-3.36777 -0.19427,-0.67672 -0.19465,-1.76555 -8.7e-4,-2.44009 0.55264,-1.92366 2.1873,-3.25721 4.18115,-3.41097 0.57312,-0.0442 1.23158,0.0533 1.85848,0.27513 1.44135,0.51005 2.58607,1.7982 2.94562,3.3147 0.14054,0.59279 0.12699,1.59501 -0.0297,2.19271 -0.42872,1.63585 -1.79095,2.9679 -3.42195,3.34616 -0.48936,0.11349 -1.29474,0.15597 -1.70863,0.0901 z m 1.04705,-3.30898 c 1.1194,-0.34358 1.28508,-1.86356 0.26829,-2.46132 -0.50114,-0.29462 -1.26051,-0.18612 -1.65429,0.23635 -0.79322,0.85101 -0.20585,2.25094 0.96882,2.30907 0.0678,0.003 0.25554,-0.0345 0.41718,-0.0841 z"
     id="path1324"
     inkscape:connector-curvature="0"
     transform="scale(0.750178)" />
  <path
     style="opacity:1;vector-effect:none;fill:#000000;fill-opacity:1;stroke:#000000;stroke-width:0.47677329;stroke-linecap:square;stroke-linejoin:bevel;stroke-miterlimit:4;stroke-dasharray:none;stroke-dashoffset:0;stroke-opacity:1"
     d="m 757.06177,759.49473 c -0.42896,-0.26159 -0.60812,-0.64492 -0.54853,-1.17365 0.0617,-0.54713 0.56225,-0.9064 1.1802,-0.84702 1.02651,0.0986 1.29126,1.48087 0.38225,1.99571 -0.30015,0.17 -0.75761,0.18126 -1.01392,0.025 z"
     id="path1326"
     inkscape:connector-curvature="0"
     transform="scale(0.750178)" />
  <path
     style="opacity:1;vector-effect:none;fill:#000000;fill-opacity:1;stroke:#000000;stroke-width:0.47677329;stroke-linecap:square;stroke-linejoin:bevel;stroke-miterlimit:4;stroke-dasharray:none;stroke-dashoffset:0;stroke-opacity:1"
     d="m 1259.3975,763.12448 c -0.9805,-0.11546 -1.91,-0.57348 -2.6471,-1.30433 -0.7802,-0.77373 -1.2,-1.59731 -1.3697,-2.68719 -0.3424,-2.20048 1.1451,-4.43143 3.3841,-5.07518 0.6598,-0.18973 1.7594,-0.18978 2.419,-1.3e-4 2.4455,0.70316 3.8999,3.17856 3.2818,5.58548 -0.5839,2.27365 -2.741,3.75538 -5.0681,3.48135 z m 1.165,-3.37825 c 0.6743,-0.3136 0.9564,-1.17262 0.6082,-1.85163 -0.1453,-0.28331 -0.3289,-0.45038 -0.6598,-0.60039 -0.6307,-0.28591 -1.4163,-0.0162 -1.7291,0.59373 -0.161,0.31386 -0.1992,0.61403 -0.12,0.94395 0.2053,0.85579 1.1006,1.28647 1.9007,0.91434 z"
     id="path1328"
     inkscape:connector-curvature="0"
     transform="scale(0.750178)" />
  <path
     style="opacity:1;vector-effect:none;fill:#000000;fill-opacity:1;stroke:#000000;stroke-width:0.47677329;stroke-linecap:square;stroke-linejoin:bevel;stroke-miterlimit:4;stroke-dasharray:none;stroke-dashoffset:0;stroke-opacity:1"
     d="m 1259.4983,759.50291 c -0.1134,-0.0608 -0.2861,-0.20931 -0.3837,-0.33 -0.2471,-0.30524 -0.2832,-0.84699 -0.08,-1.19713 0.4053,-0.69804 1.5169,-0.68101 1.8823,0.0288 0.1928,0.37436 0.162,0.85205 -0.075,1.16255 -0.312,0.40909 -0.9227,0.56165 -1.3439,0.33575 z"
     id="path1330"
     inkscape:connector-curvature="0"
     transform="scale(0.750178)" />
  <path
     style="opacity:1;vector-effect:none;fill:#000000;fill-opacity:1;stroke:#000000;stroke-width:0.33712962;stroke-linecap:square;stroke-linejoin:bevel;stroke-miterlimit:4;stroke-dasharray:none;stroke-dashoffset:0;stroke-opacity:1"
     d="m 1008.0596,511.90884 c -1.8303,-0.28412 -3.297,-1.62485 -3.797,-3.47091 -0.099,-0.36572 -0.1103,-0.48091 -0.1093,-1.12388 9e-4,-0.64167 0.013,-0.76037 0.1138,-1.13782 0.1353,-0.50559 0.4893,-1.24478 0.7781,-1.625 0.9101,-1.19795 2.2314,-1.85841 3.717,-1.85798 1.6805,5e-4 3.1278,0.825 4.0024,2.28017 0.2614,0.43493 0.4406,0.90461 0.5527,1.44836 0.1225,0.59414 0.097,1.46426 -0.059,2.05982 -0.6063,2.30642 -2.8577,3.79063 -5.1986,3.42724 z m 1.2745,-3.36862 c 0.2639,-0.12085 0.5245,-0.37788 0.6582,-0.64914 0.08,-0.16253 0.097,-0.26534 0.097,-0.57703 -3e-4,-0.32958 -0.015,-0.40748 -0.1136,-0.59452 -0.1466,-0.27879 -0.4675,-0.56474 -0.7458,-0.66444 -0.2947,-0.10557 -0.7895,-0.0807 -1.049,0.0528 -0.275,0.14141 -0.4992,0.36617 -0.629,0.63051 -0.1573,0.32041 -0.1658,0.80359 -0.02,1.12351 0.3167,0.6932 1.1138,0.99329 1.8018,0.67834 z"
     id="path1332"
     inkscape:connector-curvature="0"
     transform="scale(0.750178)" />
  <path
     style="opacity:1;vector-effect:none;fill:#000000;fill-opacity:1;stroke:#000000;stroke-width:0.33712962;stroke-linecap:square;stroke-linejoin:bevel;stroke-miterlimit:4;stroke-dasharray:none;stroke-dashoffset:0;stroke-opacity:1"
     d="m 1008.3571,508.40733 c -0.253,-0.0934 -0.5009,-0.32533 -0.6301,-0.58953 -0.101,-0.20634 -0.1112,-0.26702 -0.094,-0.55729 0.022,-0.36636 0.088,-0.5251 0.315,-0.75184 0.225,-0.22504 0.4649,-0.31693 0.831,-0.31836 0.3536,-0.001 0.5618,0.0827 0.8036,0.32446 0.2408,0.24082 0.3174,0.43371 0.3174,0.79895 0,0.1755 -0.026,0.38149 -0.058,0.45776 -0.082,0.19692 -0.3016,0.43348 -0.5212,0.56218 -0.2354,0.13793 -0.6948,0.17305 -0.9638,0.0737 z"
     id="path1334"
     inkscape:connector-curvature="0"
     transform="scale(0.750178)" />
</svg>
