<?xml version="1.0" encoding="UTF-8" standalone="no"?>
<svg
   xmlns:dc="http://purl.org/dc/elements/1.1/"
   xmlns:cc="http://creativecommons.org/ns#"
   xmlns:rdf="http://www.w3.org/1999/02/22-rdf-syntax-ns#"
   xmlns:svg="http://www.w3.org/2000/svg"
   xmlns="http://www.w3.org/2000/svg"
   xmlns:sodipodi="http://sodipodi.sourceforge.net/DTD/sodipodi-0.dtd"
   xmlns:inkscape="http://www.inkscape.org/namespaces/inkscape"
   width="507.37216"
   height="508"
   version="1.1"
   id="svg1742"
   sodipodi:docname="rstartree16.svg"
   inkscape:version="0.92.5 (2060ec1f9f, 2020-04-08)">
  <metadata
     id="metadata1748">
    <rdf:RDF>
      <cc:Work
         rdf:about="">
        <dc:format>image/svg+xml</dc:format>
        <dc:type
           rdf:resource="http://purl.org/dc/dcmitype/StillImage" />
        <dc:title></dc:title>
      </cc:Work>
    </rdf:RDF>
  </metadata>
  <defs
     id="defs1746" />
  <sodipodi:namedview
     pagecolor="#ffffff"
     bordercolor="#666666"
     borderopacity="1"
     objecttolerance="10"
     gridtolerance="10"
     guidetolerance="10"
     inkscape:pageopacity="0"
     inkscape:pageshadow="2"
     inkscape:window-width="2427"
     inkscape:window-height="1869"
     id="namedview1744"
     showgrid="false"
     fit-margin-top="0"
     fit-margin-left="0"
     fit-margin-right="0"
     fit-margin-bottom="0"
     inkscape:zoom="1.3037281"
     inkscape:cx="-19.515793"
     inkscape:cy="187.4918"
     inkscape:window-x="0"
     inkscape:window-y="0"
     inkscape:window-maximized="0"
     inkscape:current-layer="svg1742" />
  <rect
     x="4"
     y="4"
     width="499.37201"
     height="500"
     style="fill:none;stroke:#000000;stroke-width:2px;stroke-linecap:round;stroke-linejoin:round"
     id="rect1188" />
  <rect
     x="339.63916"
     y="385.12601"
     width="112.791"
     height="29.742901"
     style="fill:none;stroke:#0000ff;stroke-width:7px;stroke-linecap:round;stroke-linejoin:round"
     id="rect1190" />
  <rect
     x="439.55615"
     y="14.9744"
     width="55.712002"
     height="135.439"
     style="fill:none;stroke:#0000ff;stroke-width:7px;stroke-linecap:round;stroke-linejoin:round"
     id="rect1192" />
  <rect
     x="396.84515"
     y="137.16901"
     width="40.998199"
     height="135.856"
     style="fill:none;stroke:#0000ff;stroke-width:7px;stroke-linecap:round;stroke-linejoin:round"
     id="rect1194" />
  <rect
     x="356.94217"
     y="142.23399"
     width="11.4495"
     height="115.717"
     style="fill:none;stroke:#0000ff;stroke-width:7px;stroke-linecap:round;stroke-linejoin:round"
     id="rect1196" />
  <rect
     x="395.65814"
     y="423.94199"
     width="64.088203"
     height="72.377998"
     style="fill:none;stroke:#0000ff;stroke-width:7px;stroke-linecap:round;stroke-linejoin:round"
     id="rect1198" />
  <rect
     x="470.43216"
     y="380.83701"
     width="32.807701"
     height="123.163"
     style="fill:none;stroke:#0000ff;stroke-width:7px;stroke-linecap:round;stroke-linejoin:round"
     id="rect1200" />
  <rect
     x="445.12415"
     y="176.631"
     width="55.878201"
     height="98.885803"
     style="fill:none;stroke:#0000ff;stroke-width:7px;stroke-linecap:round;stroke-linejoin:round"
     id="rect1202" />
  <rect
     x="337.99115"
     y="21.1966"
     width="90.323303"
     height="91.925201"
     style="fill:none;stroke:#0000ff;stroke-width:7px;stroke-linecap:round;stroke-linejoin:round"
     id="rect1204" />
  <rect
     x="342.69116"
     y="293.297"
     width="160.681"
     height="76.303299"
     style="fill:none;stroke:#0000ff;stroke-width:7px;stroke-linecap:round;stroke-linejoin:round"
     id="rect1206" />
  <rect
     x="135.40816"
     y="10.57211"
     width="32.332298"
     height="41.051899"
     style="fill:none;stroke:#0000ff;stroke-width:7px;stroke-linecap:round;stroke-linejoin:round"
     id="rect1208" />
  <rect
     x="250.23915"
     y="308.26599"
     width="84.293198"
     height="12.9222"
     style="fill:none;stroke:#0000ff;stroke-width:7px;stroke-linecap:round;stroke-linejoin:round"
     id="rect1210" />
  <rect
     x="201.41716"
     y="4"
     width="113.615"
     height="71.8069"
     style="fill:none;stroke:#0000ff;stroke-width:7px;stroke-linecap:round;stroke-linejoin:round"
     id="rect1212" />
  <rect
     x="239.01515"
     y="372.491"
     width="107.276"
     height="68.785797"
     style="fill:none;stroke:#0000ff;stroke-width:7px;stroke-linecap:round;stroke-linejoin:round"
     id="rect1214" />
  <rect
     x="203.42616"
     y="98.6847"
     width="123.172"
     height="34.557598"
     style="fill:none;stroke:#0000ff;stroke-width:7px;stroke-linecap:round;stroke-linejoin:round"
     id="rect1216" />
  <rect
     x="196.32816"
     y="165.909"
     width="136.437"
     height="96.829597"
     style="fill:none;stroke:#0000ff;stroke-width:7px;stroke-linecap:round;stroke-linejoin:round"
     id="rect1218" />
  <rect
     x="228.16116"
     y="455.30399"
     width="112.684"
     height="39.5112"
     style="fill:none;stroke:#0000ff;stroke-width:7px;stroke-linecap:round;stroke-linejoin:round"
     id="rect1220" />
  <rect
     x="125.54316"
     y="77.878502"
     width="45.063702"
     height="129.892"
     style="fill:none;stroke:#0000ff;stroke-width:7px;stroke-linecap:round;stroke-linejoin:round"
     id="rect1222" />
  <rect
     x="160.43515"
     y="273.108"
     width="84.972198"
     height="94.869003"
     style="fill:none;stroke:#0000ff;stroke-width:7px;stroke-linecap:round;stroke-linejoin:round"
     id="rect1224" />
  <rect
     x="16.794353"
     y="6.52494"
     width="103.164"
     height="111.121"
     style="fill:none;stroke:#0000ff;stroke-width:7px;stroke-linecap:round;stroke-linejoin:round"
     id="rect1226" />
  <rect
     x="20.323753"
     y="159.761"
     width="88.625099"
     height="105.818"
     style="fill:none;stroke:#0000ff;stroke-width:7px;stroke-linecap:round;stroke-linejoin:round"
     id="rect1228" />
  <rect
     x="4"
     y="395.93201"
     width="65.375298"
     height="53.474701"
     style="fill:none;stroke:#0000ff;stroke-width:7px;stroke-linecap:round;stroke-linejoin:round"
     id="rect1230" />
  <rect
     x="17.182055"
     y="296.53699"
     width="123.127"
     height="72.266701"
     style="fill:none;stroke:#0000ff;stroke-width:7px;stroke-linecap:round;stroke-linejoin:round"
     id="rect1232" />
  <rect
     x="95.075661"
     y="382.203"
     width="87.766701"
     height="121.295"
     style="fill:none;stroke:#0000ff;stroke-width:7px;stroke-linecap:round;stroke-linejoin:round"
     id="rect1234" />
  <rect
     x="4"
     y="4"
     width="499.37201"
     height="500"
     style="fill:none;stroke:#000000;stroke-width:4px;stroke-linecap:round;stroke-linejoin:round"
     id="rect1240" />
  <rect
     x="4"
     y="4"
     width="342.29099"
     height="499.49799"
     style="fill:none;stroke:#ff0000;stroke-width:5px;stroke-linecap:round;stroke-linejoin:round"
     id="rect1238" />
  <rect
     x="337.99115"
     y="14.9744"
     width="165.381"
     height="489.026"
     style="fill:none;stroke:#ff0000;stroke-width:5px;stroke-linecap:round;stroke-linejoin:round"
     id="rect1236" />
  <circle
     cx="166.22215"
     cy="44.339401"
     r="4"
     id="circle1242" />
  <circle
     cx="447.30115"
     cy="335.12"
     r="4"
     id="circle1244" />
  <circle
     cx="501.10016"
     cy="460.564"
     r="4"
     id="circle1246" />
  <circle
     cx="446.62015"
     cy="311.97699"
     r="4"
     id="circle1248" />
  <circle
     cx="44.716152"
     cy="327.19101"
     r="4"
     id="circle1250" />
  <circle
     cx="450.10214"
     cy="191.76199"
     r="4"
     id="circle1252" />
  <circle
     cx="340.84515"
     cy="482.87"
     r="4"
     id="circle1254" />
  <circle
     cx="83.867859"
     cy="316.26199"
     r="4"
     id="circle1256" />
  <circle
     cx="399.81616"
     cy="79.066498"
     r="4"
     id="circle1258" />
  <circle
     cx="462.80115"
     cy="256.155"
     r="4"
     id="circle1260" />
  <circle
     cx="361.03815"
     cy="187.733"
     r="4"
     id="circle1262" />
  <circle
     cx="65.710052"
     cy="6.52494"
     r="4"
     id="circle1264" />
  <circle
     cx="95.942955"
     cy="327.27499"
     r="4"
     id="circle1266" />
  <circle
     cx="341.89615"
     cy="441.276"
     r="4"
     id="circle1268" />
  <circle
     cx="308.47916"
     cy="491.517"
     r="4"
     id="circle1270" />
  <circle
     cx="315.03217"
     cy="4"
     r="4"
     id="circle1272" />
  <circle
     cx="89.522957"
     cy="214.707"
     r="4"
     id="circle1274" />
  <circle
     cx="220.04816"
     cy="40.3867"
     r="4"
     id="circle1276" />
  <circle
     cx="416.08017"
     cy="171.38"
     r="4"
     id="circle1278" />
  <circle
     cx="259.92615"
     cy="308.26599"
     r="4"
     id="circle1280" />
  <circle
     cx="334.53217"
     cy="312.36401"
     r="4"
     id="circle1282" />
  <circle
     cx="254.38216"
     cy="6.8095703"
     r="4"
     id="circle1284" />
  <circle
     cx="435.50415"
     cy="179.29201"
     r="4"
     id="circle1286" />
  <circle
     cx="241.56015"
     cy="31.9706"
     r="4"
     id="circle1288" />
  <circle
     cx="486.60416"
     cy="502.96701"
     r="4"
     id="circle1290" />
  <circle
     cx="305.62814"
     cy="116.022"
     r="4"
     id="circle1292" />
  <circle
     cx="208.59515"
     cy="338.76001"
     r="4"
     id="circle1294" />
  <circle
     cx="135.40816"
     cy="51.624001"
     r="4"
     id="circle1296" />
  <circle
     cx="436.88116"
     cy="441.444"
     r="4"
     id="circle1298" />
  <circle
     cx="43.323753"
     cy="347.82199"
     r="4"
     id="circle1300" />
  <circle
     cx="249.74316"
     cy="494.815"
     r="4"
     id="circle1302" />
  <circle
     cx="112.60416"
     cy="435.71201"
     r="4"
     id="circle1304" />
  <circle
     cx="290.70517"
     cy="43.9688"
     r="4"
     id="circle1306" />
  <circle
     cx="107.24016"
     cy="167.60001"
     r="4"
     id="circle1308" />
  <circle
     cx="99.802757"
     cy="29.087099"
     r="4"
     id="circle1310" />
  <circle
     cx="162.45116"
     cy="180.233"
     r="4"
     id="circle1312" />
  <circle
     cx="452.42917"
     cy="412.64401"
     r="4"
     id="circle1314" />
  <circle
     cx="182.84216"
     cy="448.70901"
     r="4"
     id="circle1316" />
  <circle
     cx="404.31015"
     cy="452.44601"
     r="4"
     id="circle1318" />
  <circle
     cx="49.587353"
     cy="117.646"
     r="4"
     id="circle1320" />
  <circle
     cx="255.59515"
     cy="436.25201"
     r="4"
     id="circle1322" />
  <circle
     cx="301.83615"
     cy="403.39401"
     r="4"
     id="circle1324" />
  <circle
     cx="206.69815"
     cy="273.108"
     r="4"
     id="circle1326" />
  <circle
     cx="367.21115"
     cy="205.114"
     r="4"
     id="circle1328" />
  <circle
     cx="290.37814"
     cy="75.8069"
     r="4"
     id="circle1330" />
  <circle
     cx="154.58916"
     cy="78.227699"
     r="4"
     id="circle1332" />
  <circle
     cx="24.775352"
     cy="351.509"
     r="4"
     id="circle1334" />
  <circle
     cx="391.83215"
     cy="101.4278"
     r="4"
     id="circle1336" />
  <circle
     cx="286.31415"
     cy="262.73901"
     r="4"
     id="circle1338" />
  <circle
     cx="253.16916"
     cy="202.30901"
     r="4"
     id="circle1340" />
  <circle
     cx="84.708557"
     cy="107.176"
     r="4"
     id="circle1342" />
  <circle
     cx="154.11015"
     cy="492.91101"
     r="4"
     id="circle1344" />
  <circle
     cx="100.87685"
     cy="63.768902"
     r="4"
     id="circle1346" />
  <circle
     cx="396.99515"
     cy="222.091"
     r="4"
     id="circle1348" />
  <circle
     cx="287.33615"
     cy="431.25201"
     r="4"
     id="circle1350" />
  <circle
     cx="156.62616"
     cy="382.203"
     r="4"
     id="circle1352" />
  <circle
     cx="245.40715"
     cy="349.29599"
     r="4"
     id="circle1354" />
  <circle
     cx="349.37317"
     cy="334.90701"
     r="4"
     id="circle1356" />
  <circle
     cx="384.38516"
     cy="51.182201"
     r="4"
     id="circle1358" />
  <circle
     cx="402.19916"
     cy="426.125"
     r="4"
     id="circle1360" />
  <circle
     cx="121.84515"
     cy="296.53699"
     r="4"
     id="circle1362" />
  <circle
     cx="95.075661"
     cy="431.01599"
     r="4"
     id="circle1364" />
  <circle
     cx="312.24115"
     cy="214.472"
     r="4"
     id="circle1366" />
  <circle
     cx="134.30215"
     cy="97.635002"
     r="4"
     id="circle1368" />
  <circle
     cx="406.32214"
     cy="226.295"
     r="4"
     id="circle1370" />
  <circle
     cx="444.79214"
     cy="294.535"
     r="4"
     id="circle1372" />
  <circle
     cx="163.69716"
     cy="445.28299"
     r="4"
     id="circle1374" />
  <circle
     cx="430.46317"
     cy="391.75"
     r="4"
     id="circle1376" />
  <circle
     cx="108.10815"
     cy="395.44601"
     r="4"
     id="circle1378" />
  <circle
     cx="34.530556"
     cy="255.216"
     r="4"
     id="circle1380" />
  <circle
     cx="25.011854"
     cy="324.06201"
     r="4"
     id="circle1382" />
  <circle
     cx="30.077053"
     cy="193.59801"
     r="4"
     id="circle1384" />
  <circle
     cx="100.58765"
     cy="323.05301"
     r="4"
     id="circle1386" />
  <circle
     cx="250.23915"
     cy="314.85901"
     r="4"
     id="circle1388" />
  <circle
     cx="20.323753"
     cy="159.761"
     r="4"
     id="circle1390" />
  <circle
     cx="368.39114"
     cy="257.95102"
     r="4"
     id="circle1392" />
  <circle
     cx="176.50716"
     cy="503.233"
     r="4"
     id="circle1394" />
  <circle
     cx="420.12317"
     cy="160.51801"
     r="4"
     id="circle1396" />
  <circle
     cx="70.958458"
     cy="77.270103"
     r="4"
     id="circle1398" />
  <circle
     cx="453.85617"
     cy="183.88901"
     r="4"
     id="circle1400" />
  <circle
     cx="404.86816"
     cy="201.80099"
     r="4"
     id="circle1402" />
  <circle
     cx="503.37216"
     cy="355.00299"
     r="4"
     id="circle1404" />
  <circle
     cx="68.762154"
     cy="185.423"
     r="4"
     id="circle1406" />
  <circle
     cx="439.55615"
     cy="126.277"
     r="4"
     id="circle1408" />
  <circle
     cx="408.93716"
     cy="425.92001"
     r="4"
     id="circle1410" />
  <circle
     cx="489.89917"
     cy="333.771"
     r="4"
     id="circle1412" />
  <circle
     cx="259.33014"
     cy="398.70999"
     r="4"
     id="circle1414" />
  <circle
     cx="304.48816"
     cy="104.019"
     r="4"
     id="circle1416" />
  <circle
     cx="16.794353"
     cy="62.009201"
     r="4"
     id="circle1418" />
  <circle
     cx="356.94217"
     cy="207.767"
     r="4"
     id="circle1420" />
  <circle
     cx="111.01215"
     cy="38.608002"
     r="4"
     id="circle1422" />
  <circle
     cx="96.482559"
     cy="265.57901"
     r="4"
     id="circle1424" />
  <circle
     cx="432.77515"
     cy="157.64301"
     r="4"
     id="circle1426" />
  <circle
     cx="189.09816"
     cy="321.353"
     r="4"
     id="circle1428" />
  <circle
     cx="148.06316"
     cy="77.878502"
     r="4"
     id="circle1430" />
  <circle
     cx="471.46014"
     cy="409.32501"
     r="4"
     id="circle1432" />
  <circle
     cx="205.62315"
     cy="289.56799"
     r="4"
     id="circle1434" />
  <circle
     cx="384.51614"
     cy="316.30499"
     r="4"
     id="circle1436" />
  <circle
     cx="501.00314"
     cy="260.51001"
     r="4"
     id="circle1438" />
  <circle
     cx="167.89516"
     cy="366.04901"
     r="4"
     id="circle1440" />
  <circle
     cx="238.79416"
     cy="282.625"
     r="4"
     id="circle1442" />
  <circle
     cx="142.32315"
     cy="11.88127"
     r="4"
     id="circle1444" />
  <circle
     cx="400.71515"
     cy="404.05399"
     r="4"
     id="circle1446" />
  <circle
     cx="105.10016"
     cy="470.86801"
     r="4"
     id="circle1448" />
  <circle
     cx="360.19016"
     cy="177.842"
     r="4"
     id="circle1450" />
  <circle
     cx="353.25916"
     cy="328.67001"
     r="4"
     id="circle1452" />
  <circle
     cx="111.75516"
     cy="487.509"
     r="4"
     id="circle1454" />
  <circle
     cx="437.84317"
     cy="172.791"
     r="4"
     id="circle1456" />
  <circle
     cx="479.00314"
     cy="380.83701"
     r="4"
     id="circle1458" />
  <circle
     cx="261.10617"
     cy="24.834101"
     r="4"
     id="circle1460" />
  <circle
     cx="21.527353"
     cy="237.39999"
     r="4"
     id="circle1462" />
  <circle
     cx="427.60016"
     cy="359.70801"
     r="4"
     id="circle1464" />
  <circle
     cx="300.64917"
     cy="9.5172501"
     r="4"
     id="circle1466" />
  <circle
     cx="483.39615"
     cy="88.545601"
     r="4"
     id="circle1468" />
  <circle
     cx="301.48416"
     cy="98.6847"
     r="4"
     id="circle1470" />
  <circle
     cx="264.15515"
     cy="238.399"
     r="4"
     id="circle1472" />
  <circle
     cx="160.43515"
     cy="296.009"
     r="4"
     id="circle1474" />
  <circle
     cx="144.08415"
     cy="170.63"
     r="4"
     id="circle1476" />
  <circle
     cx="61.363052"
     cy="368.80399"
     r="4"
     id="circle1478" />
  <circle
     cx="213.90416"
     cy="361.383"
     r="4"
     id="circle1480" />
  <circle
     cx="228.71916"
     cy="470.043"
     r="4"
     id="circle1482" />
  <circle
     cx="228.16116"
     cy="455.30399"
     r="4"
     id="circle1484" />
  <circle
     cx="92.384254"
     cy="214.871"
     r="4"
     id="circle1486" />
  <circle
     cx="251.60115"
     cy="68.190598"
     r="4"
     id="circle1488" />
  <circle
     cx="23.442854"
     cy="338.85501"
     r="4"
     id="circle1490" />
  <circle
     cx="472.80817"
     cy="412.634"
     r="4"
     id="circle1492" />
  <circle
     cx="493.57416"
     cy="257.504"
     r="4"
     id="circle1494" />
  <circle
     cx="452.80417"
     cy="130.604"
     r="4"
     id="circle1496" />
  <circle
     cx="464.37814"
     cy="316.151"
     r="4"
     id="circle1498" />
  <circle
     cx="24.196453"
     cy="194.713"
     r="4"
     id="circle1500" />
  <circle
     cx="196.32816"
     cy="239.79401"
     r="4"
     id="circle1502" />
  <circle
     cx="43.745255"
     cy="404.569"
     r="4"
     id="circle1504" />
  <circle
     cx="36.785652"
     cy="99.586502"
     r="4"
     id="circle1506" />
  <circle
     cx="440.93015"
     cy="460.90302"
     r="4"
     id="circle1508" />
  <circle
     cx="346.29117"
     cy="418.091"
     r="4"
     id="circle1510" />
  <circle
     cx="170.60716"
     cy="135.532"
     r="4"
     id="circle1512" />
  <circle
     cx="286.99115"
     cy="427.879"
     r="4"
     id="circle1514" />
  <circle
     cx="292.53116"
     cy="197.71899"
     r="4"
     id="circle1516" />
  <circle
     cx="41.152054"
     cy="239.44099"
     r="4"
     id="circle1518" />
  <circle
     cx="303.32117"
     cy="229.159"
     r="4"
     id="circle1520" />
  <circle
     cx="283.38315"
     cy="216.675"
     r="4"
     id="circle1522" />
  <circle
     cx="54.575752"
     cy="59.234699"
     r="4"
     id="circle1524" />
  <circle
     cx="475.23416"
     cy="249.41701"
     r="4"
     id="circle1526" />
  <circle
     cx="470.43216"
     cy="418.23801"
     r="4"
     id="circle1528" />
  <circle
     cx="445.62616"
     cy="346.021"
     r="4"
     id="circle1530" />
  <circle
     cx="134.43216"
     cy="475.62701"
     r="4"
     id="circle1532" />
  <circle
     cx="276.94116"
     cy="456.94901"
     r="4"
     id="circle1534" />
  <circle
     cx="214.24916"
     cy="208.55"
     r="4"
     id="circle1536" />
  <circle
     cx="69.375259"
     cy="395.93201"
     r="4"
     id="circle1538" />
  <circle
     cx="469.98315"
     cy="176.631"
     r="4"
     id="circle1540" />
  <circle
     cx="434.82416"
     cy="243.897"
     r="4"
     id="circle1542" />
  <circle
     cx="361.47916"
     cy="176.907"
     r="4"
     id="circle1544" />
  <circle
     cx="406.53217"
     cy="31.2367"
     r="4"
     id="circle1546" />
  <circle
     cx="454.83017"
     cy="53.930302"
     r="4"
     id="circle1548" />
  <circle
     cx="486.78415"
     cy="261.76401"
     r="4"
     id="circle1550" />
  <circle
     cx="434.85815"
     cy="169.826"
     r="4"
     id="circle1552" />
  <circle
     cx="222.32516"
     cy="43.4207"
     r="4"
     id="circle1554" />
  <circle
     cx="428.31516"
     cy="90.342796"
     r="4"
     id="circle1556" />
  <circle
     cx="201.41716"
     cy="53.827801"
     r="4"
     id="circle1558" />
  <circle
     cx="320.88217"
     cy="228.267"
     r="4"
     id="circle1560" />
  <circle
     cx="4"
     cy="449.40701"
     r="4"
     id="circle1562" />
  <circle
     cx="169.23416"
     cy="207.77"
     r="4"
     id="circle1564" />
  <circle
     cx="164.63216"
     cy="399.95499"
     r="4"
     id="circle1566" />
  <circle
     cx="220.85216"
     cy="240.92599"
     r="4"
     id="circle1568" />
  <circle
     cx="239.01515"
     cy="383.43399"
     r="4"
     id="circle1570" />
  <circle
     cx="471.68716"
     cy="275.51599"
     r="4"
     id="circle1572" />
  <circle
     cx="503.24014"
     cy="388.927"
     r="4"
     id="circle1574" />
  <circle
     cx="326.59717"
     cy="113.816"
     r="4"
     id="circle1576" />
  <circle
     cx="439.68317"
     cy="424.98999"
     r="4"
     id="circle1578" />
  <circle
     cx="315.63916"
     cy="372.491"
     r="4"
     id="circle1580" />
  <circle
     cx="85.154259"
     cy="264.85599"
     r="4"
     id="circle1582" />
  <circle
     cx="497.12015"
     cy="352.65399"
     r="4"
     id="circle1584" />
  <circle
     cx="332.76517"
     cy="208.548"
     r="4"
     id="circle1586" />
  <circle
     cx="421.74915"
     cy="411.81601"
     r="4"
     id="circle1588" />
  <circle
     cx="276.88516"
     cy="396.897"
     r="4"
     id="circle1590" />
  <circle
     cx="143.11615"
     cy="477.11401"
     r="4"
     id="circle1592" />
  <circle
     cx="357.44315"
     cy="87.894699"
     r="4"
     id="circle1594" />
  <circle
     cx="334.36816"
     cy="406.255"
     r="4"
     id="circle1596" />
  <circle
     cx="448.53116"
     cy="81.9226"
     r="4"
     id="circle1598" />
  <circle
     cx="72.180054"
     cy="257.98001"
     r="4"
     id="circle1600" />
  <circle
     cx="230.12416"
     cy="311.293"
     r="4"
     id="circle1602" />
  <circle
     cx="440.69516"
     cy="20.415199"
     r="4"
     id="circle1604" />
  <circle
     cx="344.22516"
     cy="21.1966"
     r="4"
     id="circle1606" />
  <circle
     cx="490.53717"
     cy="209.00999"
     r="4"
     id="circle1608" />
  <circle
     cx="459.97314"
     cy="293.297"
     r="4"
     id="circle1610" />
  <circle
     cx="433.73917"
     cy="496.32001"
     r="4"
     id="circle1612" />
  <circle
     cx="119.95816"
     cy="78.348198"
     r="4"
     id="circle1614" />
  <circle
     cx="36.870953"
     cy="425.862"
     r="4"
     id="circle1616" />
  <circle
     cx="144.37616"
     cy="159.799"
     r="4"
     id="circle1618" />
  <circle
     cx="100.65086"
     cy="110.886"
     r="4"
     id="circle1620" />
  <circle
     cx="101.98436"
     cy="386.23801"
     r="4"
     id="circle1622" />
  <circle
     cx="306.95917"
     cy="321.18799"
     r="4"
     id="circle1624" />
  <circle
     cx="305.00314"
     cy="425.41299"
     r="4"
     id="circle1626" />
  <circle
     cx="283.99216"
     cy="58.738602"
     r="4"
     id="circle1628" />
  <circle
     cx="137.78915"
     cy="415.62799"
     r="4"
     id="circle1630" />
  <circle
     cx="72.746857"
     cy="357.815"
     r="4"
     id="circle1632" />
  <circle
     cx="396.84515"
     cy="199.319"
     r="4"
     id="circle1634" />
  <circle
     cx="397.86215"
     cy="113.122"
     r="4"
     id="circle1636" />
  <circle
     cx="408.91315"
     cy="425.22699"
     r="4"
     id="circle1638" />
  <circle
     cx="339.63916"
     cy="414.86899"
     r="4"
     id="circle1640" />
  <circle
     cx="61.850452"
     cy="412.005"
     r="4"
     id="circle1642" />
  <circle
     cx="321.14917"
     cy="429.673"
     r="4"
     id="circle1644" />
  <circle
     cx="125.54316"
     cy="140.79401"
     r="4"
     id="circle1646" />
  <circle
     cx="161.63916"
     cy="367.97699"
     r="4"
     id="circle1648" />
  <circle
     cx="131.22015"
     cy="171.343"
     r="4"
     id="circle1650" />
  <circle
     cx="395.65814"
     cy="423.94199"
     r="4"
     id="circle1652" />
  <circle
     cx="482.33716"
     cy="56.573502"
     r="4"
     id="circle1654" />
  <circle
     cx="342.69116"
     cy="349.87"
     r="4"
     id="circle1656" />
  <circle
     cx="286.30017"
     cy="319.63101"
     r="4"
     id="circle1658" />
  <circle
     cx="493.69217"
     cy="117.221"
     r="4"
     id="circle1660" />
  <circle
     cx="182.67616"
     cy="319.52899"
     r="4"
     id="circle1662" />
  <circle
     cx="265.18015"
     cy="165.909"
     r="4"
     id="circle1664" />
  <circle
     cx="167.74016"
     cy="11.84"
     r="4"
     id="circle1666" />
  <circle
     cx="127.23716"
     cy="81.9897"
     r="4"
     id="circle1668" />
  <circle
     cx="442.21317"
     cy="385.12601"
     r="4"
     id="circle1670" />
  <circle
     cx="413.17416"
     cy="137.16901"
     r="4"
     id="circle1672" />
  <circle
     cx="436.50015"
     cy="273.02499"
     r="4"
     id="circle1674" />
  <circle
     cx="445.12415"
     cy="222.21201"
     r="4"
     id="circle1676" />
  <circle
     cx="17.182055"
     cy="342.75101"
     r="4"
     id="circle1678" />
  <circle
     cx="449.40216"
     cy="187.017"
     r="4"
     id="circle1680" />
  <circle
     cx="483.02716"
     cy="504"
     r="4"
     id="circle1682" />
  <circle
     cx="85.831154"
     cy="253.93401"
     r="4"
     id="circle1684" />
  <circle
     cx="337.99115"
     cy="43.708599"
     r="4"
     id="circle1686" />
  <circle
     cx="436.76715"
     cy="369.60101"
     r="4"
     id="circle1688" />
  <circle
     cx="108.94916"
     cy="179.304"
     r="4"
     id="circle1690" />
  <circle
     cx="203.42616"
     cy="133.242"
     r="4"
     id="circle1692" />
  <circle
     cx="407.52615"
     cy="435.00699"
     r="4"
     id="circle1694" />
  <circle
     cx="100.03806"
     cy="503.49799"
     r="4"
     id="circle1696" />
  <circle
     cx="276.22815"
     cy="56.055099"
     r="4"
     id="circle1698" />
  <circle
     cx="421.17715"
     cy="454.66699"
     r="4"
     id="circle1700" />
  <circle
     cx="449.48715"
     cy="78.797897"
     r="4"
     id="circle1702" />
  <circle
     cx="204.42816"
     cy="230.108"
     r="4"
     id="circle1704" />
  <circle
     cx="415.27914"
     cy="138.892"
     r="4"
     id="circle1706" />
  <circle
     cx="420.52017"
     cy="112.675"
     r="4"
     id="circle1708" />
  <circle
     cx="431.66217"
     cy="332.686"
     r="4"
     id="circle1710" />
  <circle
     cx="453.75314"
     cy="437.50601"
     r="4"
     id="circle1712" />
  <circle
     cx="271.24817"
     cy="120.36"
     r="4"
     id="circle1714" />
  <circle
     cx="366.44815"
     cy="142.23399"
     r="4"
     id="circle1716" />
  <circle
     cx="26.033854"
     cy="347.88"
     r="4"
     id="circle1718" />
  <circle
     cx="437.32016"
     cy="436.47"
     r="4"
     id="circle1720" />
  <circle
     cx="131.40515"
     cy="122.112"
     r="4"
     id="circle1722" />
  <circle
     cx="140.30815"
     cy="297.198"
     r="4"
     id="circle1724" />
  <circle
     cx="146.77016"
     cy="10.57211"
     r="4"
     id="circle1726" />
  <circle
     cx="459.74615"
     cy="432.59201"
     r="4"
     id="circle1728" />
  <circle
     cx="389.27817"
     cy="63.080502"
     r="4"
     id="circle1730" />
  <circle
     cx="495.26816"
     cy="150.414"
     r="4"
     id="circle1732" />
  <circle
     cx="52.229252"
     cy="434.78299"
     r="4"
     id="circle1734" />
  <circle
     cx="287.16415"
     cy="441.17599"
     r="4"
     id="circle1736" />
  <circle
     cx="86.22036"
     cy="178.248"
     r="4"
     id="circle1738" />
  <circle
     cx="460.35214"
     cy="14.9744"
     r="4"
     id="circle1740" />
</svg>
