<?xml version="1.0" encoding="UTF-8" standalone="no"?>
<svg
   xmlns:dc="http://purl.org/dc/elements/1.1/"
   xmlns:cc="http://creativecommons.org/ns#"
   xmlns:rdf="http://www.w3.org/1999/02/22-rdf-syntax-ns#"
   xmlns:svg="http://www.w3.org/2000/svg"
   xmlns="http://www.w3.org/2000/svg"
   xmlns:sodipodi="http://sodipodi.sourceforge.net/DTD/sodipodi-0.dtd"
   xmlns:inkscape="http://www.inkscape.org/namespaces/inkscape"
   width="507.37216"
   height="508"
   version="1.1"
   id="svg2364"
   sodipodi:docname="rstartree8.svg"
   inkscape:version="0.92.5 (2060ec1f9f, 2020-04-08)">
  <metadata
     id="metadata2370">
    <rdf:RDF>
      <cc:Work
         rdf:about="">
        <dc:format>image/svg+xml</dc:format>
        <dc:type
           rdf:resource="http://purl.org/dc/dcmitype/StillImage" />
        <dc:title></dc:title>
      </cc:Work>
    </rdf:RDF>
  </metadata>
  <defs
     id="defs2368" />
  <sodipodi:namedview
     pagecolor="#ffffff"
     bordercolor="#666666"
     borderopacity="1"
     objecttolerance="10"
     gridtolerance="10"
     guidetolerance="10"
     inkscape:pageopacity="0"
     inkscape:pageshadow="2"
     inkscape:window-width="2252"
     inkscape:window-height="1598"
     id="namedview2366"
     showgrid="false"
     fit-margin-top="0"
     fit-margin-left="0"
     fit-margin-right="0"
     fit-margin-bottom="0"
     inkscape:zoom="1.84375"
     inkscape:cx="81.529435"
     inkscape:cy="323.13823"
     inkscape:window-x="792"
     inkscape:window-y="235"
     inkscape:window-maximized="0"
     inkscape:current-layer="svg2364" />
  <rect
     x="4"
     y="4"
     width="499.37201"
     height="500"
     style="fill:none;stroke:#000000;stroke-width:2px;stroke-linecap:round;stroke-linejoin:round"
     id="rect1750" />
  <rect
     x="384.38516"
     y="31.2367"
     width="22.1467"
     height="31.8438"
     style="fill:none;stroke:#0000ff;stroke-width:7px;stroke-linecap:round;stroke-linejoin:round"
     id="rect1752" />
  <rect
     x="469.98315"
     y="117.221"
     width="25.2852"
     height="59.409401"
     style="fill:none;stroke:#0000ff;stroke-width:7px;stroke-linecap:round;stroke-linejoin:round"
     id="rect1754" />
  <rect
     x="428.31516"
     y="14.9744"
     width="55.080799"
     height="75.368401"
     style="fill:none;stroke:#0000ff;stroke-width:7px;stroke-linecap:round;stroke-linejoin:round"
     id="rect1756" />
  <rect
     x="420.12317"
     y="112.675"
     width="32.6819"
     height="66.616402"
     style="fill:none;stroke:#0000ff;stroke-width:7px;stroke-linecap:round;stroke-linejoin:round"
     id="rect1758" />
  <rect
     x="360.19016"
     y="171.38"
     width="55.8904"
     height="6.46246"
     style="fill:none;stroke:#0000ff;stroke-width:7px;stroke-linecap:round;stroke-linejoin:round"
     id="rect1760" />
  <rect
     x="357.44315"
     y="79.066498"
     width="57.835899"
     height="63.167"
     style="fill:none;stroke:#0000ff;stroke-width:7px;stroke-linecap:round;stroke-linejoin:round"
     id="rect1762" />
  <rect
     x="65.710052"
     y="6.52494"
     width="45.302601"
     height="32.083099"
     style="fill:none;stroke:#0000ff;stroke-width:7px;stroke-linecap:round;stroke-linejoin:round"
     id="rect1764" />
  <rect
     x="20.323753"
     y="159.761"
     width="88.625099"
     height="19.542801"
     style="fill:none;stroke:#0000ff;stroke-width:7px;stroke-linecap:round;stroke-linejoin:round"
     id="rect1766" />
  <rect
     x="70.958458"
     y="63.768902"
     width="56.279099"
     height="77.024902"
     style="fill:none;stroke:#0000ff;stroke-width:7px;stroke-linecap:round;stroke-linejoin:round"
     id="rect1768" />
  <rect
     x="16.794353"
     y="59.234699"
     width="37.781399"
     height="58.411701"
     style="fill:none;stroke:#0000ff;stroke-width:7px;stroke-linecap:round;stroke-linejoin:round"
     id="rect1770" />
  <rect
     x="21.527353"
     y="193.59801"
     width="19.624701"
     height="61.617699"
     style="fill:none;stroke:#0000ff;stroke-width:7px;stroke-linecap:round;stroke-linejoin:round"
     id="rect1772" />
  <rect
     x="68.762154"
     y="185.423"
     width="27.7204"
     height="80.156898"
     style="fill:none;stroke:#0000ff;stroke-width:7px;stroke-linecap:round;stroke-linejoin:round"
     id="rect1774" />
  <rect
     x="445.12415"
     y="183.88901"
     width="45.413101"
     height="38.322701"
     style="fill:none;stroke:#0000ff;stroke-width:7px;stroke-linecap:round;stroke-linejoin:round"
     id="rect1776" />
  <rect
     x="431.66217"
     y="273.02499"
     width="40.024799"
     height="62.0951"
     style="fill:none;stroke:#0000ff;stroke-width:7px;stroke-linecap:round;stroke-linejoin:round"
     id="rect1778" />
  <rect
     x="434.82416"
     y="243.897"
     width="66.178299"
     height="17.867001"
     style="fill:none;stroke:#0000ff;stroke-width:7px;stroke-linecap:round;stroke-linejoin:round"
     id="rect1780" />
  <rect
     x="306.95917"
     y="257.95102"
     width="77.557404"
     height="76.956398"
     style="fill:none;stroke:#0000ff;stroke-width:7px;stroke-linecap:round;stroke-linejoin:round"
     id="rect1782" />
  <rect
     x="356.94217"
     y="187.733"
     width="49.380299"
     height="38.5611"
     style="fill:none;stroke:#0000ff;stroke-width:7px;stroke-linecap:round;stroke-linejoin:round"
     id="rect1784" />
  <rect
     x="303.32117"
     y="208.548"
     width="29.4443"
     height="20.6101"
     style="fill:none;stroke:#0000ff;stroke-width:7px;stroke-linecap:round;stroke-linejoin:round"
     id="rect1786" />
  <rect
     x="433.73917"
     y="369.60101"
     width="8.4737797"
     height="126.72"
     style="fill:none;stroke:#0000ff;stroke-width:7px;stroke-linecap:round;stroke-linejoin:round"
     id="rect1788" />
  <rect
     x="400.71515"
     y="391.75"
     width="29.747999"
     height="20.0665"
     style="fill:none;stroke:#0000ff;stroke-width:7px;stroke-linecap:round;stroke-linejoin:round"
     id="rect1790" />
  <rect
     x="479.00314"
     y="333.771"
     width="24.368999"
     height="170.229"
     style="fill:none;stroke:#0000ff;stroke-width:7px;stroke-linecap:round;stroke-linejoin:round"
     id="rect1792" />
  <rect
     x="452.42917"
     y="409.32501"
     width="20.3785"
     height="28.1814"
     style="fill:none;stroke:#0000ff;stroke-width:7px;stroke-linecap:round;stroke-linejoin:round"
     id="rect1794" />
  <rect
     x="427.60016"
     y="346.021"
     width="18.0261"
     height="13.6876"
     style="fill:none;stroke:#0000ff;stroke-width:7px;stroke-linecap:round;stroke-linejoin:round"
     id="rect1796" />
  <rect
     x="395.65814"
     y="423.94199"
     width="25.5186"
     height="30.724899"
     style="fill:none;stroke:#0000ff;stroke-width:7px;stroke-linecap:round;stroke-linejoin:round"
     id="rect1798" />
  <rect
     x="135.40816"
     y="10.57211"
     width="66.009102"
     height="43.2556"
     style="fill:none;stroke:#0000ff;stroke-width:7px;stroke-linecap:round;stroke-linejoin:round"
     id="rect1800" />
  <rect
     x="251.60115"
     y="56.055099"
     width="38.776501"
     height="19.751699"
     style="fill:none;stroke:#0000ff;stroke-width:7px;stroke-linecap:round;stroke-linejoin:round"
     id="rect1802" />
  <rect
     x="300.64917"
     y="4"
     width="43.576099"
     height="39.708599"
     style="fill:none;stroke:#0000ff;stroke-width:7px;stroke-linecap:round;stroke-linejoin:round"
     id="rect1804" />
  <rect
     x="271.24817"
     y="98.6847"
     width="55.349701"
     height="21.674999"
     style="fill:none;stroke:#0000ff;stroke-width:7px;stroke-linecap:round;stroke-linejoin:round"
     id="rect1806" />
  <rect
     x="131.22015"
     y="122.112"
     width="133.96001"
     height="58.120602"
     style="fill:none;stroke:#0000ff;stroke-width:7px;stroke-linecap:round;stroke-linejoin:round"
     id="rect1808" />
  <rect
     x="134.30215"
     y="77.878502"
     width="20.286501"
     height="19.7565"
     style="fill:none;stroke:#0000ff;stroke-width:7px;stroke-linecap:round;stroke-linejoin:round"
     id="rect1810" />
  <rect
     x="220.04816"
     y="6.8095703"
     width="70.6577"
     height="37.159302"
     style="fill:none;stroke:#0000ff;stroke-width:7px;stroke-linecap:round;stroke-linejoin:round"
     id="rect1812" />
  <rect
     x="253.16916"
     y="197.71899"
     width="39.362301"
     height="65.019501"
     style="fill:none;stroke:#0000ff;stroke-width:7px;stroke-linecap:round;stroke-linejoin:round"
     id="rect1814" />
  <rect
     x="230.12416"
     y="282.625"
     width="56.175701"
     height="37.005299"
     style="fill:none;stroke:#0000ff;stroke-width:7px;stroke-linecap:round;stroke-linejoin:round"
     id="rect1816" />
  <rect
     x="160.43515"
     y="273.108"
     width="48.1604"
     height="65.652496"
     style="fill:none;stroke:#0000ff;stroke-width:7px;stroke-linecap:round;stroke-linejoin:round"
     id="rect1818" />
  <rect
     x="169.23416"
     y="207.77"
     width="51.617401"
     height="33.155499"
     style="fill:none;stroke:#0000ff;stroke-width:7px;stroke-linecap:round;stroke-linejoin:round"
     id="rect1820" />
  <rect
     x="61.363052"
     y="357.815"
     width="11.3838"
     height="10.9882"
     style="fill:none;stroke:#0000ff;stroke-width:7px;stroke-linecap:round;stroke-linejoin:round"
     id="rect1822" />
  <rect
     x="83.867859"
     y="296.53699"
     width="56.440701"
     height="89.701698"
     style="fill:none;stroke:#0000ff;stroke-width:7px;stroke-linecap:round;stroke-linejoin:round"
     id="rect1824" />
  <rect
     x="4"
     y="395.93201"
     width="91.075699"
     height="53.474701"
     style="fill:none;stroke:#0000ff;stroke-width:7px;stroke-linecap:round;stroke-linejoin:round"
     id="rect1826" />
  <rect
     x="17.182055"
     y="324.06201"
     width="27.5341"
     height="27.446199"
     style="fill:none;stroke:#0000ff;stroke-width:7px;stroke-linecap:round;stroke-linejoin:round"
     id="rect1828" />
  <rect
     x="305.00314"
     y="414.86899"
     width="41.2883"
     height="26.407801"
     style="fill:none;stroke:#0000ff;stroke-width:7px;stroke-linecap:round;stroke-linejoin:round"
     id="rect1830" />
  <rect
     x="163.69716"
     y="445.28299"
     width="19.144699"
     height="57.949799"
     style="fill:none;stroke:#0000ff;stroke-width:7px;stroke-linecap:round;stroke-linejoin:round"
     id="rect1832" />
  <rect
     x="276.94116"
     y="427.879"
     width="10.3951"
     height="29.070601"
     style="fill:none;stroke:#0000ff;stroke-width:7px;stroke-linecap:round;stroke-linejoin:round"
     id="rect1834" />
  <rect
     x="308.47916"
     y="482.87"
     width="32.3657"
     height="8.6461"
     style="fill:none;stroke:#0000ff;stroke-width:7px;stroke-linecap:round;stroke-linejoin:round"
     id="rect1836" />
  <rect
     x="276.88516"
     y="349.87"
     width="65.805397"
     height="56.3853"
     style="fill:none;stroke:#0000ff;stroke-width:7px;stroke-linecap:round;stroke-linejoin:round"
     id="rect1838" />
  <rect
     x="108.10815"
     y="366.04901"
     width="59.787701"
     height="69.662399"
     style="fill:none;stroke:#0000ff;stroke-width:7px;stroke-linecap:round;stroke-linejoin:round"
     id="rect1840" />
  <rect
     x="100.03806"
     y="470.86801"
     width="54.072102"
     height="32.630199"
     style="fill:none;stroke:#0000ff;stroke-width:7px;stroke-linecap:round;stroke-linejoin:round"
     id="rect1842" />
  <rect
     x="213.90416"
     y="349.29599"
     width="45.425701"
     height="145.52"
     style="fill:none;stroke:#0000ff;stroke-width:7px;stroke-linecap:round;stroke-linejoin:round"
     id="rect1844" />
  <rect
     x="357.44315"
     y="14.9744"
     width="137.825"
     height="164.317"
     style="fill:none;stroke:#ff0000;stroke-width:5px;stroke-linecap:round;stroke-linejoin:round"
     id="rect1846" />
  <rect
     x="16.794353"
     y="6.52494"
     width="110.443"
     height="259.05499"
     style="fill:none;stroke:#ff0000;stroke-width:5px;stroke-linecap:round;stroke-linejoin:round"
     id="rect1848" />
  <rect
     x="303.32117"
     y="183.88901"
     width="197.68201"
     height="151.231"
     style="fill:none;stroke:#ff0000;stroke-width:5px;stroke-linecap:round;stroke-linejoin:round"
     id="rect1850" />
  <rect
     x="395.65814"
     y="333.771"
     width="107.714"
     height="170.229"
     style="fill:none;stroke:#ff0000;stroke-width:5px;stroke-linecap:round;stroke-linejoin:round"
     id="rect1852" />
  <rect
     x="131.22015"
     y="4"
     width="213.005"
     height="176.233"
     style="fill:none;stroke:#ff0000;stroke-width:5px;stroke-linecap:round;stroke-linejoin:round"
     id="rect1854" />
  <rect
     x="160.43515"
     y="197.71899"
     width="132.097"
     height="141.041"
     style="fill:none;stroke:#ff0000;stroke-width:5px;stroke-linecap:round;stroke-linejoin:round"
     id="rect1856" />
  <rect
     x="4"
     y="296.53699"
     width="136.30901"
     height="152.87"
     style="fill:none;stroke:#ff0000;stroke-width:5px;stroke-linecap:round;stroke-linejoin:round"
     id="rect1858" />
  <rect
     x="100.03806"
     y="349.29599"
     width="246.25301"
     height="154.202"
     style="fill:none;stroke:#ff0000;stroke-width:5px;stroke-linecap:round;stroke-linejoin:round"
     id="rect1860" />
  <rect
     x="4"
     y="4"
     width="499.37201"
     height="500"
     style="fill:none;stroke:#000000;stroke-width:4px;stroke-linecap:round;stroke-linejoin:round"
     id="rect1862" />
  <circle
     cx="166.22215"
     cy="44.339401"
     r="4"
     id="circle1864" />
  <circle
     cx="447.30115"
     cy="335.12"
     r="4"
     id="circle1866" />
  <circle
     cx="501.10016"
     cy="460.564"
     r="4"
     id="circle1868" />
  <circle
     cx="446.62015"
     cy="311.97699"
     r="4"
     id="circle1870" />
  <circle
     cx="44.716152"
     cy="327.19101"
     r="4"
     id="circle1872" />
  <circle
     cx="450.10214"
     cy="191.76199"
     r="4"
     id="circle1874" />
  <circle
     cx="340.84515"
     cy="482.87"
     r="4"
     id="circle1876" />
  <circle
     cx="83.867859"
     cy="316.26199"
     r="4"
     id="circle1878" />
  <circle
     cx="399.81616"
     cy="79.066498"
     r="4"
     id="circle1880" />
  <circle
     cx="462.80115"
     cy="256.155"
     r="4"
     id="circle1882" />
  <circle
     cx="361.03815"
     cy="187.733"
     r="4"
     id="circle1884" />
  <circle
     cx="65.710052"
     cy="6.52494"
     r="4"
     id="circle1886" />
  <circle
     cx="95.942955"
     cy="327.27499"
     r="4"
     id="circle1888" />
  <circle
     cx="341.89615"
     cy="441.276"
     r="4"
     id="circle1890" />
  <circle
     cx="308.47916"
     cy="491.517"
     r="4"
     id="circle1892" />
  <circle
     cx="315.03217"
     cy="4"
     r="4"
     id="circle1894" />
  <circle
     cx="89.522957"
     cy="214.707"
     r="4"
     id="circle1896" />
  <circle
     cx="220.04816"
     cy="40.3867"
     r="4"
     id="circle1898" />
  <circle
     cx="416.08017"
     cy="171.38"
     r="4"
     id="circle1900" />
  <circle
     cx="259.92615"
     cy="308.26599"
     r="4"
     id="circle1902" />
  <circle
     cx="334.53217"
     cy="312.36401"
     r="4"
     id="circle1904" />
  <circle
     cx="254.38216"
     cy="6.8095703"
     r="4"
     id="circle1906" />
  <circle
     cx="435.50415"
     cy="179.29201"
     r="4"
     id="circle1908" />
  <circle
     cx="241.56015"
     cy="31.9706"
     r="4"
     id="circle1910" />
  <circle
     cx="486.60416"
     cy="502.96701"
     r="4"
     id="circle1912" />
  <circle
     cx="305.62814"
     cy="116.022"
     r="4"
     id="circle1914" />
  <circle
     cx="208.59515"
     cy="338.76001"
     r="4"
     id="circle1916" />
  <circle
     cx="135.40816"
     cy="51.624001"
     r="4"
     id="circle1918" />
  <circle
     cx="436.88116"
     cy="441.444"
     r="4"
     id="circle1920" />
  <circle
     cx="43.323753"
     cy="347.82199"
     r="4"
     id="circle1922" />
  <circle
     cx="249.74316"
     cy="494.815"
     r="4"
     id="circle1924" />
  <circle
     cx="112.60416"
     cy="435.71201"
     r="4"
     id="circle1926" />
  <circle
     cx="290.70517"
     cy="43.9688"
     r="4"
     id="circle1928" />
  <circle
     cx="107.24016"
     cy="167.60001"
     r="4"
     id="circle1930" />
  <circle
     cx="99.802757"
     cy="29.087099"
     r="4"
     id="circle1932" />
  <circle
     cx="162.45116"
     cy="180.233"
     r="4"
     id="circle1934" />
  <circle
     cx="452.42917"
     cy="412.64401"
     r="4"
     id="circle1936" />
  <circle
     cx="182.84216"
     cy="448.70901"
     r="4"
     id="circle1938" />
  <circle
     cx="404.31015"
     cy="452.44601"
     r="4"
     id="circle1940" />
  <circle
     cx="49.587353"
     cy="117.646"
     r="4"
     id="circle1942" />
  <circle
     cx="255.59515"
     cy="436.25201"
     r="4"
     id="circle1944" />
  <circle
     cx="301.83615"
     cy="403.39401"
     r="4"
     id="circle1946" />
  <circle
     cx="206.69815"
     cy="273.108"
     r="4"
     id="circle1948" />
  <circle
     cx="367.21115"
     cy="205.114"
     r="4"
     id="circle1950" />
  <circle
     cx="290.37814"
     cy="75.8069"
     r="4"
     id="circle1952" />
  <circle
     cx="154.58916"
     cy="78.227699"
     r="4"
     id="circle1954" />
  <circle
     cx="24.775352"
     cy="351.509"
     r="4"
     id="circle1956" />
  <circle
     cx="391.83215"
     cy="101.4278"
     r="4"
     id="circle1958" />
  <circle
     cx="286.31415"
     cy="262.73901"
     r="4"
     id="circle1960" />
  <circle
     cx="253.16916"
     cy="202.30901"
     r="4"
     id="circle1962" />
  <circle
     cx="84.708557"
     cy="107.176"
     r="4"
     id="circle1964" />
  <circle
     cx="154.11015"
     cy="492.91101"
     r="4"
     id="circle1966" />
  <circle
     cx="100.87685"
     cy="63.768902"
     r="4"
     id="circle1968" />
  <circle
     cx="396.99515"
     cy="222.091"
     r="4"
     id="circle1970" />
  <circle
     cx="287.33615"
     cy="431.25201"
     r="4"
     id="circle1972" />
  <circle
     cx="156.62616"
     cy="382.203"
     r="4"
     id="circle1974" />
  <circle
     cx="245.40715"
     cy="349.29599"
     r="4"
     id="circle1976" />
  <circle
     cx="349.37317"
     cy="334.90701"
     r="4"
     id="circle1978" />
  <circle
     cx="384.38516"
     cy="51.182201"
     r="4"
     id="circle1980" />
  <circle
     cx="402.19916"
     cy="426.125"
     r="4"
     id="circle1982" />
  <circle
     cx="121.84515"
     cy="296.53699"
     r="4"
     id="circle1984" />
  <circle
     cx="95.075661"
     cy="431.01599"
     r="4"
     id="circle1986" />
  <circle
     cx="312.24115"
     cy="214.472"
     r="4"
     id="circle1988" />
  <circle
     cx="134.30215"
     cy="97.635002"
     r="4"
     id="circle1990" />
  <circle
     cx="406.32214"
     cy="226.295"
     r="4"
     id="circle1992" />
  <circle
     cx="444.79214"
     cy="294.535"
     r="4"
     id="circle1994" />
  <circle
     cx="163.69716"
     cy="445.28299"
     r="4"
     id="circle1996" />
  <circle
     cx="430.46317"
     cy="391.75"
     r="4"
     id="circle1998" />
  <circle
     cx="108.10815"
     cy="395.44601"
     r="4"
     id="circle2000" />
  <circle
     cx="34.530556"
     cy="255.216"
     r="4"
     id="circle2002" />
  <circle
     cx="25.011854"
     cy="324.06201"
     r="4"
     id="circle2004" />
  <circle
     cx="30.077053"
     cy="193.59801"
     r="4"
     id="circle2006" />
  <circle
     cx="100.58765"
     cy="323.05301"
     r="4"
     id="circle2008" />
  <circle
     cx="250.23915"
     cy="314.85901"
     r="4"
     id="circle2010" />
  <circle
     cx="20.323753"
     cy="159.761"
     r="4"
     id="circle2012" />
  <circle
     cx="368.39114"
     cy="257.95102"
     r="4"
     id="circle2014" />
  <circle
     cx="176.50716"
     cy="503.233"
     r="4"
     id="circle2016" />
  <circle
     cx="420.12317"
     cy="160.51801"
     r="4"
     id="circle2018" />
  <circle
     cx="70.958458"
     cy="77.270103"
     r="4"
     id="circle2020" />
  <circle
     cx="453.85617"
     cy="183.88901"
     r="4"
     id="circle2022" />
  <circle
     cx="404.86816"
     cy="201.80099"
     r="4"
     id="circle2024" />
  <circle
     cx="503.37216"
     cy="355.00299"
     r="4"
     id="circle2026" />
  <circle
     cx="68.762154"
     cy="185.423"
     r="4"
     id="circle2028" />
  <circle
     cx="439.55615"
     cy="126.277"
     r="4"
     id="circle2030" />
  <circle
     cx="408.93716"
     cy="425.92001"
     r="4"
     id="circle2032" />
  <circle
     cx="489.89917"
     cy="333.771"
     r="4"
     id="circle2034" />
  <circle
     cx="259.33014"
     cy="398.70999"
     r="4"
     id="circle2036" />
  <circle
     cx="304.48816"
     cy="104.019"
     r="4"
     id="circle2038" />
  <circle
     cx="16.794353"
     cy="62.009201"
     r="4"
     id="circle2040" />
  <circle
     cx="356.94217"
     cy="207.767"
     r="4"
     id="circle2042" />
  <circle
     cx="111.01215"
     cy="38.608002"
     r="4"
     id="circle2044" />
  <circle
     cx="96.482559"
     cy="265.57901"
     r="4"
     id="circle2046" />
  <circle
     cx="432.77515"
     cy="157.64301"
     r="4"
     id="circle2048" />
  <circle
     cx="189.09816"
     cy="321.353"
     r="4"
     id="circle2050" />
  <circle
     cx="148.06316"
     cy="77.878502"
     r="4"
     id="circle2052" />
  <circle
     cx="471.46014"
     cy="409.32501"
     r="4"
     id="circle2054" />
  <circle
     cx="205.62315"
     cy="289.56799"
     r="4"
     id="circle2056" />
  <circle
     cx="384.51614"
     cy="316.30499"
     r="4"
     id="circle2058" />
  <circle
     cx="501.00314"
     cy="260.51001"
     r="4"
     id="circle2060" />
  <circle
     cx="167.89516"
     cy="366.04901"
     r="4"
     id="circle2062" />
  <circle
     cx="238.79416"
     cy="282.625"
     r="4"
     id="circle2064" />
  <circle
     cx="142.32315"
     cy="11.88127"
     r="4"
     id="circle2066" />
  <circle
     cx="400.71515"
     cy="404.05399"
     r="4"
     id="circle2068" />
  <circle
     cx="105.10016"
     cy="470.86801"
     r="4"
     id="circle2070" />
  <circle
     cx="360.19016"
     cy="177.842"
     r="4"
     id="circle2072" />
  <circle
     cx="353.25916"
     cy="328.67001"
     r="4"
     id="circle2074" />
  <circle
     cx="111.75516"
     cy="487.509"
     r="4"
     id="circle2076" />
  <circle
     cx="437.84317"
     cy="172.791"
     r="4"
     id="circle2078" />
  <circle
     cx="479.00314"
     cy="380.83701"
     r="4"
     id="circle2080" />
  <circle
     cx="261.10617"
     cy="24.834101"
     r="4"
     id="circle2082" />
  <circle
     cx="21.527353"
     cy="237.39999"
     r="4"
     id="circle2084" />
  <circle
     cx="427.60016"
     cy="359.70801"
     r="4"
     id="circle2086" />
  <circle
     cx="300.64917"
     cy="9.5172501"
     r="4"
     id="circle2088" />
  <circle
     cx="483.39615"
     cy="88.545601"
     r="4"
     id="circle2090" />
  <circle
     cx="301.48416"
     cy="98.6847"
     r="4"
     id="circle2092" />
  <circle
     cx="264.15515"
     cy="238.399"
     r="4"
     id="circle2094" />
  <circle
     cx="160.43515"
     cy="296.009"
     r="4"
     id="circle2096" />
  <circle
     cx="144.08415"
     cy="170.63"
     r="4"
     id="circle2098" />
  <circle
     cx="61.363052"
     cy="368.80399"
     r="4"
     id="circle2100" />
  <circle
     cx="213.90416"
     cy="361.383"
     r="4"
     id="circle2102" />
  <circle
     cx="228.71916"
     cy="470.043"
     r="4"
     id="circle2104" />
  <circle
     cx="228.16116"
     cy="455.30399"
     r="4"
     id="circle2106" />
  <circle
     cx="92.384254"
     cy="214.871"
     r="4"
     id="circle2108" />
  <circle
     cx="251.60115"
     cy="68.190598"
     r="4"
     id="circle2110" />
  <circle
     cx="23.442854"
     cy="338.85501"
     r="4"
     id="circle2112" />
  <circle
     cx="472.80817"
     cy="412.634"
     r="4"
     id="circle2114" />
  <circle
     cx="493.57416"
     cy="257.504"
     r="4"
     id="circle2116" />
  <circle
     cx="452.80417"
     cy="130.604"
     r="4"
     id="circle2118" />
  <circle
     cx="464.37814"
     cy="316.151"
     r="4"
     id="circle2120" />
  <circle
     cx="24.196453"
     cy="194.713"
     r="4"
     id="circle2122" />
  <circle
     cx="196.32816"
     cy="239.79401"
     r="4"
     id="circle2124" />
  <circle
     cx="43.745255"
     cy="404.569"
     r="4"
     id="circle2126" />
  <circle
     cx="36.785652"
     cy="99.586502"
     r="4"
     id="circle2128" />
  <circle
     cx="440.93015"
     cy="460.90302"
     r="4"
     id="circle2130" />
  <circle
     cx="346.29117"
     cy="418.091"
     r="4"
     id="circle2132" />
  <circle
     cx="170.60716"
     cy="135.532"
     r="4"
     id="circle2134" />
  <circle
     cx="286.99115"
     cy="427.879"
     r="4"
     id="circle2136" />
  <circle
     cx="292.53116"
     cy="197.71899"
     r="4"
     id="circle2138" />
  <circle
     cx="41.152054"
     cy="239.44099"
     r="4"
     id="circle2140" />
  <circle
     cx="303.32117"
     cy="229.159"
     r="4"
     id="circle2142" />
  <circle
     cx="283.38315"
     cy="216.675"
     r="4"
     id="circle2144" />
  <circle
     cx="54.575752"
     cy="59.234699"
     r="4"
     id="circle2146" />
  <circle
     cx="475.23416"
     cy="249.41701"
     r="4"
     id="circle2148" />
  <circle
     cx="470.43216"
     cy="418.23801"
     r="4"
     id="circle2150" />
  <circle
     cx="445.62616"
     cy="346.021"
     r="4"
     id="circle2152" />
  <circle
     cx="134.43216"
     cy="475.62701"
     r="4"
     id="circle2154" />
  <circle
     cx="276.94116"
     cy="456.94901"
     r="4"
     id="circle2156" />
  <circle
     cx="214.24916"
     cy="208.55"
     r="4"
     id="circle2158" />
  <circle
     cx="69.375259"
     cy="395.93201"
     r="4"
     id="circle2160" />
  <circle
     cx="469.98315"
     cy="176.631"
     r="4"
     id="circle2162" />
  <circle
     cx="434.82416"
     cy="243.897"
     r="4"
     id="circle2164" />
  <circle
     cx="361.47916"
     cy="176.907"
     r="4"
     id="circle2166" />
  <circle
     cx="406.53217"
     cy="31.2367"
     r="4"
     id="circle2168" />
  <circle
     cx="454.83017"
     cy="53.930302"
     r="4"
     id="circle2170" />
  <circle
     cx="486.78415"
     cy="261.76401"
     r="4"
     id="circle2172" />
  <circle
     cx="434.85815"
     cy="169.826"
     r="4"
     id="circle2174" />
  <circle
     cx="222.32516"
     cy="43.4207"
     r="4"
     id="circle2176" />
  <circle
     cx="428.31516"
     cy="90.342796"
     r="4"
     id="circle2178" />
  <circle
     cx="201.41716"
     cy="53.827801"
     r="4"
     id="circle2180" />
  <circle
     cx="320.88217"
     cy="228.267"
     r="4"
     id="circle2182" />
  <circle
     cx="4"
     cy="449.40701"
     r="4"
     id="circle2184" />
  <circle
     cx="169.23416"
     cy="207.77"
     r="4"
     id="circle2186" />
  <circle
     cx="164.63216"
     cy="399.95499"
     r="4"
     id="circle2188" />
  <circle
     cx="220.85216"
     cy="240.92599"
     r="4"
     id="circle2190" />
  <circle
     cx="239.01515"
     cy="383.43399"
     r="4"
     id="circle2192" />
  <circle
     cx="471.68716"
     cy="275.51599"
     r="4"
     id="circle2194" />
  <circle
     cx="503.24014"
     cy="388.927"
     r="4"
     id="circle2196" />
  <circle
     cx="326.59717"
     cy="113.816"
     r="4"
     id="circle2198" />
  <circle
     cx="439.68317"
     cy="424.98999"
     r="4"
     id="circle2200" />
  <circle
     cx="315.63916"
     cy="372.491"
     r="4"
     id="circle2202" />
  <circle
     cx="85.154259"
     cy="264.85599"
     r="4"
     id="circle2204" />
  <circle
     cx="497.12015"
     cy="352.65399"
     r="4"
     id="circle2206" />
  <circle
     cx="332.76517"
     cy="208.548"
     r="4"
     id="circle2208" />
  <circle
     cx="421.74915"
     cy="411.81601"
     r="4"
     id="circle2210" />
  <circle
     cx="276.88516"
     cy="396.897"
     r="4"
     id="circle2212" />
  <circle
     cx="143.11615"
     cy="477.11401"
     r="4"
     id="circle2214" />
  <circle
     cx="357.44315"
     cy="87.894699"
     r="4"
     id="circle2216" />
  <circle
     cx="334.36816"
     cy="406.255"
     r="4"
     id="circle2218" />
  <circle
     cx="448.53116"
     cy="81.9226"
     r="4"
     id="circle2220" />
  <circle
     cx="72.180054"
     cy="257.98001"
     r="4"
     id="circle2222" />
  <circle
     cx="230.12416"
     cy="311.293"
     r="4"
     id="circle2224" />
  <circle
     cx="440.69516"
     cy="20.415199"
     r="4"
     id="circle2226" />
  <circle
     cx="344.22516"
     cy="21.1966"
     r="4"
     id="circle2228" />
  <circle
     cx="490.53717"
     cy="209.00999"
     r="4"
     id="circle2230" />
  <circle
     cx="459.97314"
     cy="293.297"
     r="4"
     id="circle2232" />
  <circle
     cx="433.73917"
     cy="496.32001"
     r="4"
     id="circle2234" />
  <circle
     cx="119.95816"
     cy="78.348198"
     r="4"
     id="circle2236" />
  <circle
     cx="36.870953"
     cy="425.862"
     r="4"
     id="circle2238" />
  <circle
     cx="144.37616"
     cy="159.799"
     r="4"
     id="circle2240" />
  <circle
     cx="100.65086"
     cy="110.886"
     r="4"
     id="circle2242" />
  <circle
     cx="101.98436"
     cy="386.23801"
     r="4"
     id="circle2244" />
  <circle
     cx="306.95917"
     cy="321.18799"
     r="4"
     id="circle2246" />
  <circle
     cx="305.00314"
     cy="425.41299"
     r="4"
     id="circle2248" />
  <circle
     cx="283.99216"
     cy="58.738602"
     r="4"
     id="circle2250" />
  <circle
     cx="137.78915"
     cy="415.62799"
     r="4"
     id="circle2252" />
  <circle
     cx="72.746857"
     cy="357.815"
     r="4"
     id="circle2254" />
  <circle
     cx="396.84515"
     cy="199.319"
     r="4"
     id="circle2256" />
  <circle
     cx="397.86215"
     cy="113.122"
     r="4"
     id="circle2258" />
  <circle
     cx="408.91315"
     cy="425.22699"
     r="4"
     id="circle2260" />
  <circle
     cx="339.63916"
     cy="414.86899"
     r="4"
     id="circle2262" />
  <circle
     cx="61.850452"
     cy="412.005"
     r="4"
     id="circle2264" />
  <circle
     cx="321.14917"
     cy="429.673"
     r="4"
     id="circle2266" />
  <circle
     cx="125.54316"
     cy="140.79401"
     r="4"
     id="circle2268" />
  <circle
     cx="161.63916"
     cy="367.97699"
     r="4"
     id="circle2270" />
  <circle
     cx="131.22015"
     cy="171.343"
     r="4"
     id="circle2272" />
  <circle
     cx="395.65814"
     cy="423.94199"
     r="4"
     id="circle2274" />
  <circle
     cx="482.33716"
     cy="56.573502"
     r="4"
     id="circle2276" />
  <circle
     cx="342.69116"
     cy="349.87"
     r="4"
     id="circle2278" />
  <circle
     cx="286.30017"
     cy="319.63101"
     r="4"
     id="circle2280" />
  <circle
     cx="493.69217"
     cy="117.221"
     r="4"
     id="circle2282" />
  <circle
     cx="182.67616"
     cy="319.52899"
     r="4"
     id="circle2284" />
  <circle
     cx="265.18015"
     cy="165.909"
     r="4"
     id="circle2286" />
  <circle
     cx="167.74016"
     cy="11.84"
     r="4"
     id="circle2288" />
  <circle
     cx="127.23716"
     cy="81.9897"
     r="4"
     id="circle2290" />
  <circle
     cx="442.21317"
     cy="385.12601"
     r="4"
     id="circle2292" />
  <circle
     cx="413.17416"
     cy="137.16901"
     r="4"
     id="circle2294" />
  <circle
     cx="436.50015"
     cy="273.02499"
     r="4"
     id="circle2296" />
  <circle
     cx="445.12415"
     cy="222.21201"
     r="4"
     id="circle2298" />
  <circle
     cx="17.182055"
     cy="342.75101"
     r="4"
     id="circle2300" />
  <circle
     cx="449.40216"
     cy="187.017"
     r="4"
     id="circle2302" />
  <circle
     cx="483.02716"
     cy="504"
     r="4"
     id="circle2304" />
  <circle
     cx="85.831154"
     cy="253.93401"
     r="4"
     id="circle2306" />
  <circle
     cx="337.99115"
     cy="43.708599"
     r="4"
     id="circle2308" />
  <circle
     cx="436.76715"
     cy="369.60101"
     r="4"
     id="circle2310" />
  <circle
     cx="108.94916"
     cy="179.304"
     r="4"
     id="circle2312" />
  <circle
     cx="203.42616"
     cy="133.242"
     r="4"
     id="circle2314" />
  <circle
     cx="407.52615"
     cy="435.00699"
     r="4"
     id="circle2316" />
  <circle
     cx="100.03806"
     cy="503.49799"
     r="4"
     id="circle2318" />
  <circle
     cx="276.22815"
     cy="56.055099"
     r="4"
     id="circle2320" />
  <circle
     cx="421.17715"
     cy="454.66699"
     r="4"
     id="circle2322" />
  <circle
     cx="449.48715"
     cy="78.797897"
     r="4"
     id="circle2324" />
  <circle
     cx="204.42816"
     cy="230.108"
     r="4"
     id="circle2326" />
  <circle
     cx="415.27914"
     cy="138.892"
     r="4"
     id="circle2328" />
  <circle
     cx="420.52017"
     cy="112.675"
     r="4"
     id="circle2330" />
  <circle
     cx="431.66217"
     cy="332.686"
     r="4"
     id="circle2332" />
  <circle
     cx="453.75314"
     cy="437.50601"
     r="4"
     id="circle2334" />
  <circle
     cx="271.24817"
     cy="120.36"
     r="4"
     id="circle2336" />
  <circle
     cx="366.44815"
     cy="142.23399"
     r="4"
     id="circle2338" />
  <circle
     cx="26.033854"
     cy="347.88"
     r="4"
     id="circle2340" />
  <circle
     cx="437.32016"
     cy="436.47"
     r="4"
     id="circle2342" />
  <circle
     cx="131.40515"
     cy="122.112"
     r="4"
     id="circle2344" />
  <circle
     cx="140.30815"
     cy="297.198"
     r="4"
     id="circle2346" />
  <circle
     cx="146.77016"
     cy="10.57211"
     r="4"
     id="circle2348" />
  <circle
     cx="459.74615"
     cy="432.59201"
     r="4"
     id="circle2350" />
  <circle
     cx="389.27817"
     cy="63.080502"
     r="4"
     id="circle2352" />
  <circle
     cx="495.26816"
     cy="150.414"
     r="4"
     id="circle2354" />
  <circle
     cx="52.229252"
     cy="434.78299"
     r="4"
     id="circle2356" />
  <circle
     cx="287.16415"
     cy="441.17599"
     r="4"
     id="circle2358" />
  <circle
     cx="86.22036"
     cy="178.248"
     r="4"
     id="circle2360" />
  <circle
     cx="460.35214"
     cy="14.9744"
     r="4"
     id="circle2362" />
</svg>
