<?xml version="1.0" encoding="UTF-8" standalone="no"?>
<svg
   xmlns:dc="http://purl.org/dc/elements/1.1/"
   xmlns:cc="http://creativecommons.org/ns#"
   xmlns:rdf="http://www.w3.org/1999/02/22-rdf-syntax-ns#"
   xmlns:svg="http://www.w3.org/2000/svg"
   xmlns="http://www.w3.org/2000/svg"
   xmlns:sodipodi="http://sodipodi.sourceforge.net/DTD/sodipodi-0.dtd"
   xmlns:inkscape="http://www.inkscape.org/namespaces/inkscape"
   width="507.37216"
   height="508"
   version="1.1"
   id="svg1180"
   sodipodi:docname="rtree8.svg"
   inkscape:version="0.92.5 (2060ec1f9f, 2020-04-08)">
  <metadata
     id="metadata1186">
    <rdf:RDF>
      <cc:Work
         rdf:about="">
        <dc:format>image/svg+xml</dc:format>
        <dc:type
           rdf:resource="http://purl.org/dc/dcmitype/StillImage" />
        <dc:title></dc:title>
      </cc:Work>
    </rdf:RDF>
  </metadata>
  <defs
     id="defs1184" />
  <sodipodi:namedview
     pagecolor="#ffffff"
     bordercolor="#666666"
     borderopacity="1"
     objecttolerance="10"
     gridtolerance="10"
     guidetolerance="10"
     inkscape:pageopacity="0"
     inkscape:pageshadow="2"
     inkscape:window-width="2328"
     inkscape:window-height="1784"
     id="namedview1182"
     showgrid="false"
     fit-margin-top="0"
     fit-margin-left="0"
     fit-margin-right="0"
     fit-margin-bottom="0"
     inkscape:zoom="1.84375"
     inkscape:cx="169.25889"
     inkscape:cy="398.24681"
     inkscape:window-x="0"
     inkscape:window-y="0"
     inkscape:window-maximized="0"
     inkscape:current-layer="svg1180" />
  <rect
     x="4"
     y="4"
     width="499.37201"
     height="500"
     style="fill:none;stroke:#000000;stroke-width:2px;stroke-linecap:round;stroke-linejoin:round"
     id="rect566" />
  <rect
     x="444.79214"
     y="294.535"
     width="19.5856"
     height="51.486"
     style="fill:none;stroke:#0000ff;stroke-width:7px;stroke-linecap:round;stroke-linejoin:round"
     id="rect568" />
  <rect
     x="400.71515"
     y="404.05399"
     width="72.092598"
     height="14.1845"
     style="fill:none;stroke:#0000ff;stroke-width:7px;stroke-linecap:round;stroke-linejoin:round"
     id="rect570" />
  <rect
     x="427.60016"
     y="332.686"
     width="14.6124"
     height="52.439899"
     style="fill:none;stroke:#0000ff;stroke-width:7px;stroke-linecap:round;stroke-linejoin:round"
     id="rect572" />
  <rect
     x="334.36816"
     y="349.87"
     width="11.9226"
     height="68.220703"
     style="fill:none;stroke:#0000ff;stroke-width:7px;stroke-linecap:round;stroke-linejoin:round"
     id="rect574" />
  <rect
     x="306.95917"
     y="312.36401"
     width="77.557404"
     height="22.542801"
     style="fill:none;stroke:#0000ff;stroke-width:7px;stroke-linecap:round;stroke-linejoin:round"
     id="rect576" />
  <rect
     x="454.83017"
     y="14.9744"
     width="5.5216999"
     height="38.956001"
     style="fill:none;stroke:#0000ff;stroke-width:7px;stroke-linecap:round;stroke-linejoin:round"
     id="rect578" />
  <rect
     x="482.33716"
     y="56.573502"
     width="12.9314"
     height="152.437"
     style="fill:none;stroke:#0000ff;stroke-width:7px;stroke-linecap:round;stroke-linejoin:round"
     id="rect580" />
  <rect
     x="430.46317"
     y="380.83701"
     width="48.539799"
     height="10.9125"
     style="fill:none;stroke:#0000ff;stroke-width:7px;stroke-linecap:round;stroke-linejoin:round"
     id="rect582" />
  <rect
     x="445.12415"
     y="78.797897"
     width="8.7320499"
     height="143.414"
     style="fill:none;stroke:#0000ff;stroke-width:7px;stroke-linecap:round;stroke-linejoin:round"
     id="rect584" />
  <rect
     x="428.31516"
     y="90.342796"
     width="11.2415"
     height="182.68201"
     style="fill:none;stroke:#0000ff;stroke-width:7px;stroke-linecap:round;stroke-linejoin:round"
     id="rect586" />
  <rect
     x="459.97314"
     y="176.631"
     width="15.2608"
     height="116.667"
     style="fill:none;stroke:#0000ff;stroke-width:7px;stroke-linecap:round;stroke-linejoin:round"
     id="rect588" />
  <rect
     x="486.78415"
     y="257.504"
     width="16.5886"
     height="131.423"
     style="fill:none;stroke:#0000ff;stroke-width:7px;stroke-linecap:round;stroke-linejoin:round"
     id="rect590" />
  <rect
     x="17.182055"
     y="338.85501"
     width="26.141701"
     height="12.6534"
     style="fill:none;stroke:#0000ff;stroke-width:7px;stroke-linecap:round;stroke-linejoin:round"
     id="rect592" />
  <rect
     x="208.59515"
     y="338.76001"
     width="107.044"
     height="44.673302"
     style="fill:none;stroke:#0000ff;stroke-width:7px;stroke-linecap:round;stroke-linejoin:round"
     id="rect594" />
  <rect
     x="164.63216"
     y="396.897"
     width="137.203"
     height="6.4966002"
     style="fill:none;stroke:#0000ff;stroke-width:7px;stroke-linecap:round;stroke-linejoin:round"
     id="rect596" />
  <rect
     x="101.98436"
     y="366.04901"
     width="65.911102"
     height="49.578602"
     style="fill:none;stroke:#0000ff;stroke-width:7px;stroke-linecap:round;stroke-linejoin:round"
     id="rect598" />
  <rect
     x="43.745255"
     y="357.815"
     width="29.001499"
     height="54.189899"
     style="fill:none;stroke:#0000ff;stroke-width:7px;stroke-linecap:round;stroke-linejoin:round"
     id="rect600" />
  <rect
     x="36.785652"
     y="99.586502"
     width="31.9765"
     height="85.836098"
     style="fill:none;stroke:#0000ff;stroke-width:7px;stroke-linecap:round;stroke-linejoin:round"
     id="rect602" />
  <rect
     x="25.011854"
     y="323.05301"
     width="75.575699"
     height="4.2214999"
     style="fill:none;stroke:#0000ff;stroke-width:7px;stroke-linecap:round;stroke-linejoin:round"
     id="rect604" />
  <rect
     x="121.84515"
     y="296.009"
     width="38.5895"
     height="1.1884201"
     style="fill:none;stroke:#0000ff;stroke-width:7px;stroke-linecap:round;stroke-linejoin:round"
     id="rect606" />
  <rect
     x="20.323753"
     y="159.761"
     width="20.8283"
     height="95.454597"
     style="fill:none;stroke:#0000ff;stroke-width:7px;stroke-linecap:round;stroke-linejoin:round"
     id="rect608" />
  <rect
     x="182.67616"
     y="282.625"
     width="103.624"
     height="38.7276"
     style="fill:none;stroke:#0000ff;stroke-width:7px;stroke-linecap:round;stroke-linejoin:round"
     id="rect610" />
  <rect
     x="100.87685"
     y="63.768902"
     width="61.573898"
     height="116.464"
     style="fill:none;stroke:#0000ff;stroke-width:7px;stroke-linecap:round;stroke-linejoin:round"
     id="rect612" />
  <rect
     x="72.180054"
     y="107.176"
     width="24.3025"
     height="209.086"
     style="fill:none;stroke:#0000ff;stroke-width:7px;stroke-linecap:round;stroke-linejoin:round"
     id="rect614" />
  <rect
     x="196.32816"
     y="216.675"
     width="89.986099"
     height="56.432598"
     style="fill:none;stroke:#0000ff;stroke-width:7px;stroke-linecap:round;stroke-linejoin:round"
     id="rect616" />
  <rect
     x="135.40816"
     y="43.4207"
     width="155.297"
     height="15.318"
     style="fill:none;stroke:#0000ff;stroke-width:7px;stroke-linecap:round;stroke-linejoin:round"
     id="rect618" />
  <rect
     x="111.01215"
     y="38.608002"
     width="109.035"
     height="1.77868"
     style="fill:none;stroke:#0000ff;stroke-width:7px;stroke-linecap:round;stroke-linejoin:round"
     id="rect620" />
  <rect
     x="16.794353"
     y="59.234699"
     width="54.1642"
     height="18.0354"
     style="fill:none;stroke:#0000ff;stroke-width:7px;stroke-linecap:round;stroke-linejoin:round"
     id="rect622" />
  <rect
     x="99.802757"
     y="29.087099"
     width="141.758"
     height="2.8835199"
     style="fill:none;stroke:#0000ff;stroke-width:7px;stroke-linecap:round;stroke-linejoin:round"
     id="rect624" />
  <rect
     x="100.65086"
     y="78.348198"
     width="30.754101"
     height="43.764198"
     style="fill:none;stroke:#0000ff;stroke-width:7px;stroke-linecap:round;stroke-linejoin:round"
     id="rect626" />
  <rect
     x="86.22036"
     y="133.242"
     width="117.205"
     height="46.061699"
     style="fill:none;stroke:#0000ff;stroke-width:7px;stroke-linecap:round;stroke-linejoin:round"
     id="rect628" />
  <rect
     x="251.60115"
     y="68.190598"
     width="60.6394"
     height="146.28101"
     style="fill:none;stroke:#0000ff;stroke-width:7px;stroke-linecap:round;stroke-linejoin:round"
     id="rect630" />
  <rect
     x="169.23416"
     y="207.77"
     width="45.014198"
     height="1"
     style="fill:none;stroke:#0000ff;stroke-width:7px;stroke-linecap:round;stroke-linejoin:round"
     id="rect632" />
  <rect
     x="65.710052"
     y="6.52494"
     width="234.939"
     height="18.309099"
     style="fill:none;stroke:#0000ff;stroke-width:7px;stroke-linecap:round;stroke-linejoin:round"
     id="rect634" />
  <rect
     x="437.32016"
     y="424.98999"
     width="3.6096101"
     height="35.912399"
     style="fill:none;stroke:#0000ff;stroke-width:7px;stroke-linecap:round;stroke-linejoin:round"
     id="rect636" />
  <rect
     x="395.65814"
     y="423.94199"
     width="25.5186"
     height="30.724899"
     style="fill:none;stroke:#0000ff;stroke-width:7px;stroke-linecap:round;stroke-linejoin:round"
     id="rect638" />
  <rect
     x="228.16116"
     y="425.41299"
     width="92.987999"
     height="31.5369"
     style="fill:none;stroke:#0000ff;stroke-width:7px;stroke-linecap:round;stroke-linejoin:round"
     id="rect640" />
  <rect
     x="228.71916"
     y="470.043"
     width="112.125"
     height="24.772499"
     style="fill:none;stroke:#0000ff;stroke-width:7px;stroke-linecap:round;stroke-linejoin:round"
     id="rect642" />
  <rect
     x="433.73917"
     y="460.564"
     width="67.361702"
     height="43.436001"
     style="fill:none;stroke:#0000ff;stroke-width:7px;stroke-linecap:round;stroke-linejoin:round"
     id="rect644" />
  <rect
     x="341.89615"
     y="432.59201"
     width="117.85"
     height="8.8528004"
     style="fill:none;stroke:#0000ff;stroke-width:7px;stroke-linecap:round;stroke-linejoin:round"
     id="rect646" />
  <rect
     x="4"
     y="425.862"
     width="178.842"
     height="23.544701"
     style="fill:none;stroke:#0000ff;stroke-width:7px;stroke-linecap:round;stroke-linejoin:round"
     id="rect648" />
  <rect
     x="100.03806"
     y="470.86801"
     width="76.468803"
     height="32.630199"
     style="fill:none;stroke:#0000ff;stroke-width:7px;stroke-linecap:round;stroke-linejoin:round"
     id="rect650" />
  <rect
     x="303.32117"
     y="176.907"
     width="58.158501"
     height="52.251801"
     style="fill:none;stroke:#0000ff;stroke-width:7px;stroke-linecap:round;stroke-linejoin:round"
     id="rect652" />
  <rect
     x="384.38516"
     y="20.415199"
     width="56.309898"
     height="92.706596"
     style="fill:none;stroke:#0000ff;stroke-width:7px;stroke-linecap:round;stroke-linejoin:round"
     id="rect654" />
  <rect
     x="396.84515"
     y="137.16901"
     width="23.2777"
     height="89.125099"
     style="fill:none;stroke:#0000ff;stroke-width:7px;stroke-linecap:round;stroke-linejoin:round"
     id="rect656" />
  <rect
     x="357.44315"
     y="87.894699"
     width="10.9485"
     height="170.056"
     style="fill:none;stroke:#0000ff;stroke-width:7px;stroke-linecap:round;stroke-linejoin:round"
     id="rect658" />
  <rect
     x="290.37814"
     y="4"
     width="53.847099"
     height="112.022"
     style="fill:none;stroke:#0000ff;stroke-width:7px;stroke-linecap:round;stroke-linejoin:round"
     id="rect660" />
  <rect
     x="306.95917"
     y="294.535"
     width="165.849"
     height="123.704"
     style="fill:none;stroke:#ff0000;stroke-width:5px;stroke-linecap:round;stroke-linejoin:round"
     id="rect662" />
  <rect
     x="17.182055"
     y="338.76001"
     width="298.457"
     height="76.867599"
     style="fill:none;stroke:#ff0000;stroke-width:5px;stroke-linecap:round;stroke-linejoin:round"
     id="rect666" />
  <rect
     x="20.323753"
     y="63.768902"
     width="265.98999"
     height="263.50601"
     style="fill:none;stroke:#ff0000;stroke-width:5px;stroke-linecap:round;stroke-linejoin:round"
     id="rect668" />
  <rect
     x="16.794353"
     y="29.087099"
     width="273.91101"
     height="48.182999"
     style="fill:none;stroke:#ff0000;stroke-width:5px;stroke-linecap:round;stroke-linejoin:round"
     id="rect670" />
  <rect
     x="65.710052"
     y="6.52494"
     width="246.53101"
     height="207.94701"
     style="fill:none;stroke:#ff0000;stroke-width:5px;stroke-linecap:round;stroke-linejoin:round"
     id="rect672" />
  <rect
     x="290.37814"
     y="4"
     width="150.317"
     height="253.951"
     style="fill:none;stroke:#ff0000;stroke-width:5px;stroke-linecap:round;stroke-linejoin:round"
     id="rect676" />
  <rect
     x="4"
     y="4"
     width="499.37201"
     height="500"
     style="fill:none;stroke:#000000;stroke-width:4px;stroke-linecap:round;stroke-linejoin:round"
     id="rect678" />
  <rect
     x="428.31516"
     y="14.9744"
     width="75.057503"
     height="376.77499"
     style="fill:none;stroke:#ff0000;stroke-width:5px;stroke-linecap:round;stroke-linejoin:round"
     id="rect664" />
  <rect
     x="4"
     y="423.94199"
     width="497.10101"
     height="80.0578"
     style="fill:none;stroke:#ff0000;stroke-width:5px;stroke-linecap:round;stroke-linejoin:round"
     id="rect674" />
  <circle
     cx="166.22215"
     cy="44.339401"
     r="4"
     id="circle680" />
  <circle
     cx="447.30115"
     cy="335.12"
     r="4"
     id="circle682" />
  <circle
     cx="501.10016"
     cy="460.564"
     r="4"
     id="circle684" />
  <circle
     cx="446.62015"
     cy="311.97699"
     r="4"
     id="circle686" />
  <circle
     cx="44.716152"
     cy="327.19101"
     r="4"
     id="circle688" />
  <circle
     cx="450.10214"
     cy="191.76199"
     r="4"
     id="circle690" />
  <circle
     cx="340.84515"
     cy="482.87"
     r="4"
     id="circle692" />
  <circle
     cx="83.867859"
     cy="316.26199"
     r="4"
     id="circle694" />
  <circle
     cx="399.81616"
     cy="79.066498"
     r="4"
     id="circle696" />
  <circle
     cx="462.80115"
     cy="256.155"
     r="4"
     id="circle698" />
  <circle
     cx="361.03815"
     cy="187.733"
     r="4"
     id="circle700" />
  <circle
     cx="65.710052"
     cy="6.52494"
     r="4"
     id="circle702" />
  <circle
     cx="95.942955"
     cy="327.27499"
     r="4"
     id="circle704" />
  <circle
     cx="341.89615"
     cy="441.276"
     r="4"
     id="circle706" />
  <circle
     cx="308.47916"
     cy="491.517"
     r="4"
     id="circle708" />
  <circle
     cx="315.03217"
     cy="4"
     r="4"
     id="circle710" />
  <circle
     cx="89.522957"
     cy="214.707"
     r="4"
     id="circle712" />
  <circle
     cx="220.04816"
     cy="40.3867"
     r="4"
     id="circle714" />
  <circle
     cx="416.08017"
     cy="171.38"
     r="4"
     id="circle716" />
  <circle
     cx="259.92615"
     cy="308.26599"
     r="4"
     id="circle718" />
  <circle
     cx="334.53217"
     cy="312.36401"
     r="4"
     id="circle720" />
  <circle
     cx="254.38216"
     cy="6.8095703"
     r="4"
     id="circle722" />
  <circle
     cx="435.50415"
     cy="179.29201"
     r="4"
     id="circle724" />
  <circle
     cx="241.56015"
     cy="31.9706"
     r="4"
     id="circle726" />
  <circle
     cx="486.60416"
     cy="502.96701"
     r="4"
     id="circle728" />
  <circle
     cx="305.62814"
     cy="116.022"
     r="4"
     id="circle730" />
  <circle
     cx="208.59515"
     cy="338.76001"
     r="4"
     id="circle732" />
  <circle
     cx="135.40816"
     cy="51.624001"
     r="4"
     id="circle734" />
  <circle
     cx="436.88116"
     cy="441.444"
     r="4"
     id="circle736" />
  <circle
     cx="43.323753"
     cy="347.82199"
     r="4"
     id="circle738" />
  <circle
     cx="249.74316"
     cy="494.815"
     r="4"
     id="circle740" />
  <circle
     cx="112.60416"
     cy="435.71201"
     r="4"
     id="circle742" />
  <circle
     cx="290.70517"
     cy="43.9688"
     r="4"
     id="circle744" />
  <circle
     cx="107.24016"
     cy="167.60001"
     r="4"
     id="circle746" />
  <circle
     cx="99.802757"
     cy="29.087099"
     r="4"
     id="circle748" />
  <circle
     cx="162.45116"
     cy="180.233"
     r="4"
     id="circle750" />
  <circle
     cx="452.42917"
     cy="412.64401"
     r="4"
     id="circle752" />
  <circle
     cx="182.84216"
     cy="448.70901"
     r="4"
     id="circle754" />
  <circle
     cx="404.31015"
     cy="452.44601"
     r="4"
     id="circle756" />
  <circle
     cx="49.587353"
     cy="117.646"
     r="4"
     id="circle758" />
  <circle
     cx="255.59515"
     cy="436.25201"
     r="4"
     id="circle760" />
  <circle
     cx="301.83615"
     cy="403.39401"
     r="4"
     id="circle762" />
  <circle
     cx="206.69815"
     cy="273.108"
     r="4"
     id="circle764" />
  <circle
     cx="367.21115"
     cy="205.114"
     r="4"
     id="circle766" />
  <circle
     cx="290.37814"
     cy="75.8069"
     r="4"
     id="circle768" />
  <circle
     cx="154.58916"
     cy="78.227699"
     r="4"
     id="circle770" />
  <circle
     cx="24.775352"
     cy="351.509"
     r="4"
     id="circle772" />
  <circle
     cx="391.83215"
     cy="101.4278"
     r="4"
     id="circle774" />
  <circle
     cx="286.31415"
     cy="262.73901"
     r="4"
     id="circle776" />
  <circle
     cx="253.16916"
     cy="202.30901"
     r="4"
     id="circle778" />
  <circle
     cx="84.708557"
     cy="107.176"
     r="4"
     id="circle780" />
  <circle
     cx="154.11015"
     cy="492.91101"
     r="4"
     id="circle782" />
  <circle
     cx="100.87685"
     cy="63.768902"
     r="4"
     id="circle784" />
  <circle
     cx="396.99515"
     cy="222.091"
     r="4"
     id="circle786" />
  <circle
     cx="287.33615"
     cy="431.25201"
     r="4"
     id="circle788" />
  <circle
     cx="156.62616"
     cy="382.203"
     r="4"
     id="circle790" />
  <circle
     cx="245.40715"
     cy="349.29599"
     r="4"
     id="circle792" />
  <circle
     cx="349.37317"
     cy="334.90701"
     r="4"
     id="circle794" />
  <circle
     cx="384.38516"
     cy="51.182201"
     r="4"
     id="circle796" />
  <circle
     cx="402.19916"
     cy="426.125"
     r="4"
     id="circle798" />
  <circle
     cx="121.84515"
     cy="296.53699"
     r="4"
     id="circle800" />
  <circle
     cx="95.075661"
     cy="431.01599"
     r="4"
     id="circle802" />
  <circle
     cx="312.24115"
     cy="214.472"
     r="4"
     id="circle804" />
  <circle
     cx="134.30215"
     cy="97.635002"
     r="4"
     id="circle806" />
  <circle
     cx="406.32214"
     cy="226.295"
     r="4"
     id="circle808" />
  <circle
     cx="444.79214"
     cy="294.535"
     r="4"
     id="circle810" />
  <circle
     cx="163.69716"
     cy="445.28299"
     r="4"
     id="circle812" />
  <circle
     cx="430.46317"
     cy="391.75"
     r="4"
     id="circle814" />
  <circle
     cx="108.10815"
     cy="395.44601"
     r="4"
     id="circle816" />
  <circle
     cx="34.530556"
     cy="255.216"
     r="4"
     id="circle818" />
  <circle
     cx="25.011854"
     cy="324.06201"
     r="4"
     id="circle820" />
  <circle
     cx="30.077053"
     cy="193.59801"
     r="4"
     id="circle822" />
  <circle
     cx="100.58765"
     cy="323.05301"
     r="4"
     id="circle824" />
  <circle
     cx="250.23915"
     cy="314.85901"
     r="4"
     id="circle826" />
  <circle
     cx="20.323753"
     cy="159.761"
     r="4"
     id="circle828" />
  <circle
     cx="368.39114"
     cy="257.95102"
     r="4"
     id="circle830" />
  <circle
     cx="176.50716"
     cy="503.233"
     r="4"
     id="circle832" />
  <circle
     cx="420.12317"
     cy="160.51801"
     r="4"
     id="circle834" />
  <circle
     cx="70.958458"
     cy="77.270103"
     r="4"
     id="circle836" />
  <circle
     cx="453.85617"
     cy="183.88901"
     r="4"
     id="circle838" />
  <circle
     cx="404.86816"
     cy="201.80099"
     r="4"
     id="circle840" />
  <circle
     cx="503.37216"
     cy="355.00299"
     r="4"
     id="circle842" />
  <circle
     cx="68.762154"
     cy="185.423"
     r="4"
     id="circle844" />
  <circle
     cx="439.55615"
     cy="126.277"
     r="4"
     id="circle846" />
  <circle
     cx="408.93716"
     cy="425.92001"
     r="4"
     id="circle848" />
  <circle
     cx="489.89917"
     cy="333.771"
     r="4"
     id="circle850" />
  <circle
     cx="259.33014"
     cy="398.70999"
     r="4"
     id="circle852" />
  <circle
     cx="304.48816"
     cy="104.019"
     r="4"
     id="circle854" />
  <circle
     cx="16.794353"
     cy="62.009201"
     r="4"
     id="circle856" />
  <circle
     cx="356.94217"
     cy="207.767"
     r="4"
     id="circle858" />
  <circle
     cx="111.01215"
     cy="38.608002"
     r="4"
     id="circle860" />
  <circle
     cx="96.482559"
     cy="265.57901"
     r="4"
     id="circle862" />
  <circle
     cx="432.77515"
     cy="157.64301"
     r="4"
     id="circle864" />
  <circle
     cx="189.09816"
     cy="321.353"
     r="4"
     id="circle866" />
  <circle
     cx="148.06316"
     cy="77.878502"
     r="4"
     id="circle868" />
  <circle
     cx="471.46014"
     cy="409.32501"
     r="4"
     id="circle870" />
  <circle
     cx="205.62315"
     cy="289.56799"
     r="4"
     id="circle872" />
  <circle
     cx="384.51614"
     cy="316.30499"
     r="4"
     id="circle874" />
  <circle
     cx="501.00314"
     cy="260.51001"
     r="4"
     id="circle876" />
  <circle
     cx="167.89516"
     cy="366.04901"
     r="4"
     id="circle878" />
  <circle
     cx="238.79416"
     cy="282.625"
     r="4"
     id="circle880" />
  <circle
     cx="142.32315"
     cy="11.88127"
     r="4"
     id="circle882" />
  <circle
     cx="400.71515"
     cy="404.05399"
     r="4"
     id="circle884" />
  <circle
     cx="105.10016"
     cy="470.86801"
     r="4"
     id="circle886" />
  <circle
     cx="360.19016"
     cy="177.842"
     r="4"
     id="circle888" />
  <circle
     cx="353.25916"
     cy="328.67001"
     r="4"
     id="circle890" />
  <circle
     cx="111.75516"
     cy="487.509"
     r="4"
     id="circle892" />
  <circle
     cx="437.84317"
     cy="172.791"
     r="4"
     id="circle894" />
  <circle
     cx="479.00314"
     cy="380.83701"
     r="4"
     id="circle896" />
  <circle
     cx="261.10617"
     cy="24.834101"
     r="4"
     id="circle898" />
  <circle
     cx="21.527353"
     cy="237.39999"
     r="4"
     id="circle900" />
  <circle
     cx="427.60016"
     cy="359.70801"
     r="4"
     id="circle902" />
  <circle
     cx="300.64917"
     cy="9.5172501"
     r="4"
     id="circle904" />
  <circle
     cx="483.39615"
     cy="88.545601"
     r="4"
     id="circle906" />
  <circle
     cx="301.48416"
     cy="98.6847"
     r="4"
     id="circle908" />
  <circle
     cx="264.15515"
     cy="238.399"
     r="4"
     id="circle910" />
  <circle
     cx="160.43515"
     cy="296.009"
     r="4"
     id="circle912" />
  <circle
     cx="144.08415"
     cy="170.63"
     r="4"
     id="circle914" />
  <circle
     cx="61.363052"
     cy="368.80399"
     r="4"
     id="circle916" />
  <circle
     cx="213.90416"
     cy="361.383"
     r="4"
     id="circle918" />
  <circle
     cx="228.71916"
     cy="470.043"
     r="4"
     id="circle920" />
  <circle
     cx="228.16116"
     cy="455.30399"
     r="4"
     id="circle922" />
  <circle
     cx="92.384254"
     cy="214.871"
     r="4"
     id="circle924" />
  <circle
     cx="251.60115"
     cy="68.190598"
     r="4"
     id="circle926" />
  <circle
     cx="23.442854"
     cy="338.85501"
     r="4"
     id="circle928" />
  <circle
     cx="472.80817"
     cy="412.634"
     r="4"
     id="circle930" />
  <circle
     cx="493.57416"
     cy="257.504"
     r="4"
     id="circle932" />
  <circle
     cx="452.80417"
     cy="130.604"
     r="4"
     id="circle934" />
  <circle
     cx="464.37814"
     cy="316.151"
     r="4"
     id="circle936" />
  <circle
     cx="24.196453"
     cy="194.713"
     r="4"
     id="circle938" />
  <circle
     cx="196.32816"
     cy="239.79401"
     r="4"
     id="circle940" />
  <circle
     cx="43.745255"
     cy="404.569"
     r="4"
     id="circle942" />
  <circle
     cx="36.785652"
     cy="99.586502"
     r="4"
     id="circle944" />
  <circle
     cx="440.93015"
     cy="460.90302"
     r="4"
     id="circle946" />
  <circle
     cx="346.29117"
     cy="418.091"
     r="4"
     id="circle948" />
  <circle
     cx="170.60716"
     cy="135.532"
     r="4"
     id="circle950" />
  <circle
     cx="286.99115"
     cy="427.879"
     r="4"
     id="circle952" />
  <circle
     cx="292.53116"
     cy="197.71899"
     r="4"
     id="circle954" />
  <circle
     cx="41.152054"
     cy="239.44099"
     r="4"
     id="circle956" />
  <circle
     cx="303.32117"
     cy="229.159"
     r="4"
     id="circle958" />
  <circle
     cx="283.38315"
     cy="216.675"
     r="4"
     id="circle960" />
  <circle
     cx="54.575752"
     cy="59.234699"
     r="4"
     id="circle962" />
  <circle
     cx="475.23416"
     cy="249.41701"
     r="4"
     id="circle964" />
  <circle
     cx="470.43216"
     cy="418.23801"
     r="4"
     id="circle966" />
  <circle
     cx="445.62616"
     cy="346.021"
     r="4"
     id="circle968" />
  <circle
     cx="134.43216"
     cy="475.62701"
     r="4"
     id="circle970" />
  <circle
     cx="276.94116"
     cy="456.94901"
     r="4"
     id="circle972" />
  <circle
     cx="214.24916"
     cy="208.55"
     r="4"
     id="circle974" />
  <circle
     cx="69.375259"
     cy="395.93201"
     r="4"
     id="circle976" />
  <circle
     cx="469.98315"
     cy="176.631"
     r="4"
     id="circle978" />
  <circle
     cx="434.82416"
     cy="243.897"
     r="4"
     id="circle980" />
  <circle
     cx="361.47916"
     cy="176.907"
     r="4"
     id="circle982" />
  <circle
     cx="406.53217"
     cy="31.2367"
     r="4"
     id="circle984" />
  <circle
     cx="454.83017"
     cy="53.930302"
     r="4"
     id="circle986" />
  <circle
     cx="486.78415"
     cy="261.76401"
     r="4"
     id="circle988" />
  <circle
     cx="434.85815"
     cy="169.826"
     r="4"
     id="circle990" />
  <circle
     cx="222.32516"
     cy="43.4207"
     r="4"
     id="circle992" />
  <circle
     cx="428.31516"
     cy="90.342796"
     r="4"
     id="circle994" />
  <circle
     cx="201.41716"
     cy="53.827801"
     r="4"
     id="circle996" />
  <circle
     cx="320.88217"
     cy="228.267"
     r="4"
     id="circle998" />
  <circle
     cx="4"
     cy="449.40701"
     r="4"
     id="circle1000" />
  <circle
     cx="169.23416"
     cy="207.77"
     r="4"
     id="circle1002" />
  <circle
     cx="164.63216"
     cy="399.95499"
     r="4"
     id="circle1004" />
  <circle
     cx="220.85216"
     cy="240.92599"
     r="4"
     id="circle1006" />
  <circle
     cx="239.01515"
     cy="383.43399"
     r="4"
     id="circle1008" />
  <circle
     cx="471.68716"
     cy="275.51599"
     r="4"
     id="circle1010" />
  <circle
     cx="503.24014"
     cy="388.927"
     r="4"
     id="circle1012" />
  <circle
     cx="326.59717"
     cy="113.816"
     r="4"
     id="circle1014" />
  <circle
     cx="439.68317"
     cy="424.98999"
     r="4"
     id="circle1016" />
  <circle
     cx="315.63916"
     cy="372.491"
     r="4"
     id="circle1018" />
  <circle
     cx="85.154259"
     cy="264.85599"
     r="4"
     id="circle1020" />
  <circle
     cx="497.12015"
     cy="352.65399"
     r="4"
     id="circle1022" />
  <circle
     cx="332.76517"
     cy="208.548"
     r="4"
     id="circle1024" />
  <circle
     cx="421.74915"
     cy="411.81601"
     r="4"
     id="circle1026" />
  <circle
     cx="276.88516"
     cy="396.897"
     r="4"
     id="circle1028" />
  <circle
     cx="143.11615"
     cy="477.11401"
     r="4"
     id="circle1030" />
  <circle
     cx="357.44315"
     cy="87.894699"
     r="4"
     id="circle1032" />
  <circle
     cx="334.36816"
     cy="406.255"
     r="4"
     id="circle1034" />
  <circle
     cx="448.53116"
     cy="81.9226"
     r="4"
     id="circle1036" />
  <circle
     cx="72.180054"
     cy="257.98001"
     r="4"
     id="circle1038" />
  <circle
     cx="230.12416"
     cy="311.293"
     r="4"
     id="circle1040" />
  <circle
     cx="440.69516"
     cy="20.415199"
     r="4"
     id="circle1042" />
  <circle
     cx="344.22516"
     cy="21.1966"
     r="4"
     id="circle1044" />
  <circle
     cx="490.53717"
     cy="209.00999"
     r="4"
     id="circle1046" />
  <circle
     cx="459.97314"
     cy="293.297"
     r="4"
     id="circle1048" />
  <circle
     cx="433.73917"
     cy="496.32001"
     r="4"
     id="circle1050" />
  <circle
     cx="119.95816"
     cy="78.348198"
     r="4"
     id="circle1052" />
  <circle
     cx="36.870953"
     cy="425.862"
     r="4"
     id="circle1054" />
  <circle
     cx="144.37616"
     cy="159.799"
     r="4"
     id="circle1056" />
  <circle
     cx="100.65086"
     cy="110.886"
     r="4"
     id="circle1058" />
  <circle
     cx="101.98436"
     cy="386.23801"
     r="4"
     id="circle1060" />
  <circle
     cx="306.95917"
     cy="321.18799"
     r="4"
     id="circle1062" />
  <circle
     cx="305.00314"
     cy="425.41299"
     r="4"
     id="circle1064" />
  <circle
     cx="283.99216"
     cy="58.738602"
     r="4"
     id="circle1066" />
  <circle
     cx="137.78915"
     cy="415.62799"
     r="4"
     id="circle1068" />
  <circle
     cx="72.746857"
     cy="357.815"
     r="4"
     id="circle1070" />
  <circle
     cx="396.84515"
     cy="199.319"
     r="4"
     id="circle1072" />
  <circle
     cx="397.86215"
     cy="113.122"
     r="4"
     id="circle1074" />
  <circle
     cx="408.91315"
     cy="425.22699"
     r="4"
     id="circle1076" />
  <circle
     cx="339.63916"
     cy="414.86899"
     r="4"
     id="circle1078" />
  <circle
     cx="61.850452"
     cy="412.005"
     r="4"
     id="circle1080" />
  <circle
     cx="321.14917"
     cy="429.673"
     r="4"
     id="circle1082" />
  <circle
     cx="125.54316"
     cy="140.79401"
     r="4"
     id="circle1084" />
  <circle
     cx="161.63916"
     cy="367.97699"
     r="4"
     id="circle1086" />
  <circle
     cx="131.22015"
     cy="171.343"
     r="4"
     id="circle1088" />
  <circle
     cx="395.65814"
     cy="423.94199"
     r="4"
     id="circle1090" />
  <circle
     cx="482.33716"
     cy="56.573502"
     r="4"
     id="circle1092" />
  <circle
     cx="342.69116"
     cy="349.87"
     r="4"
     id="circle1094" />
  <circle
     cx="286.30017"
     cy="319.63101"
     r="4"
     id="circle1096" />
  <circle
     cx="493.69217"
     cy="117.221"
     r="4"
     id="circle1098" />
  <circle
     cx="182.67616"
     cy="319.52899"
     r="4"
     id="circle1100" />
  <circle
     cx="265.18015"
     cy="165.909"
     r="4"
     id="circle1102" />
  <circle
     cx="167.74016"
     cy="11.84"
     r="4"
     id="circle1104" />
  <circle
     cx="127.23716"
     cy="81.9897"
     r="4"
     id="circle1106" />
  <circle
     cx="442.21317"
     cy="385.12601"
     r="4"
     id="circle1108" />
  <circle
     cx="413.17416"
     cy="137.16901"
     r="4"
     id="circle1110" />
  <circle
     cx="436.50015"
     cy="273.02499"
     r="4"
     id="circle1112" />
  <circle
     cx="445.12415"
     cy="222.21201"
     r="4"
     id="circle1114" />
  <circle
     cx="17.182055"
     cy="342.75101"
     r="4"
     id="circle1116" />
  <circle
     cx="449.40216"
     cy="187.017"
     r="4"
     id="circle1118" />
  <circle
     cx="483.02716"
     cy="504"
     r="4"
     id="circle1120" />
  <circle
     cx="85.831154"
     cy="253.93401"
     r="4"
     id="circle1122" />
  <circle
     cx="337.99115"
     cy="43.708599"
     r="4"
     id="circle1124" />
  <circle
     cx="436.76715"
     cy="369.60101"
     r="4"
     id="circle1126" />
  <circle
     cx="108.94916"
     cy="179.304"
     r="4"
     id="circle1128" />
  <circle
     cx="203.42616"
     cy="133.242"
     r="4"
     id="circle1130" />
  <circle
     cx="407.52615"
     cy="435.00699"
     r="4"
     id="circle1132" />
  <circle
     cx="100.03806"
     cy="503.49799"
     r="4"
     id="circle1134" />
  <circle
     cx="276.22815"
     cy="56.055099"
     r="4"
     id="circle1136" />
  <circle
     cx="421.17715"
     cy="454.66699"
     r="4"
     id="circle1138" />
  <circle
     cx="449.48715"
     cy="78.797897"
     r="4"
     id="circle1140" />
  <circle
     cx="204.42816"
     cy="230.108"
     r="4"
     id="circle1142" />
  <circle
     cx="415.27914"
     cy="138.892"
     r="4"
     id="circle1144" />
  <circle
     cx="420.52017"
     cy="112.675"
     r="4"
     id="circle1146" />
  <circle
     cx="431.66217"
     cy="332.686"
     r="4"
     id="circle1148" />
  <circle
     cx="453.75314"
     cy="437.50601"
     r="4"
     id="circle1150" />
  <circle
     cx="271.24817"
     cy="120.36"
     r="4"
     id="circle1152" />
  <circle
     cx="366.44815"
     cy="142.23399"
     r="4"
     id="circle1154" />
  <circle
     cx="26.033854"
     cy="347.88"
     r="4"
     id="circle1156" />
  <circle
     cx="437.32016"
     cy="436.47"
     r="4"
     id="circle1158" />
  <circle
     cx="131.40515"
     cy="122.112"
     r="4"
     id="circle1160" />
  <circle
     cx="140.30815"
     cy="297.198"
     r="4"
     id="circle1162" />
  <circle
     cx="146.77016"
     cy="10.57211"
     r="4"
     id="circle1164" />
  <circle
     cx="459.74615"
     cy="432.59201"
     r="4"
     id="circle1166" />
  <circle
     cx="389.27817"
     cy="63.080502"
     r="4"
     id="circle1168" />
  <circle
     cx="495.26816"
     cy="150.414"
     r="4"
     id="circle1170" />
  <circle
     cx="52.229252"
     cy="434.78299"
     r="4"
     id="circle1172" />
  <circle
     cx="287.16415"
     cy="441.17599"
     r="4"
     id="circle1174" />
  <circle
     cx="86.22036"
     cy="178.248"
     r="4"
     id="circle1176" />
  <circle
     cx="460.35214"
     cy="14.9744"
     r="4"
     id="circle1178" />
</svg>
