<?xml version="1.0" encoding="UTF-8" standalone="no"?>
<svg
   xmlns:dc="http://purl.org/dc/elements/1.1/"
   xmlns:cc="http://creativecommons.org/ns#"
   xmlns:rdf="http://www.w3.org/1999/02/22-rdf-syntax-ns#"
   xmlns:svg="http://www.w3.org/2000/svg"
   xmlns="http://www.w3.org/2000/svg"
   xmlns:sodipodi="http://sodipodi.sourceforge.net/DTD/sodipodi-0.dtd"
   xmlns:inkscape="http://www.inkscape.org/namespaces/inkscape"
   width="201.55811mm"
   height="201.55811mm"
   viewBox="0 0 571.4816 571.48125"
   version="1.2"
   id="svg6316"
   sodipodi:docname="sc.svg"
   inkscape:version="0.92.5 (2060ec1f9f, 2020-04-08)">
  <metadata
     id="metadata6320">
    <rdf:RDF>
      <cc:Work
         rdf:about="">
        <dc:format>image/svg+xml</dc:format>
        <dc:type
           rdf:resource="http://purl.org/dc/dcmitype/StillImage" />
        <dc:title />
        <dc:creator>
          <cc:Agent>
            <dc:title>tweber</dc:title>
          </cc:Agent>
        </dc:creator>
      </cc:Work>
    </rdf:RDF>
  </metadata>
  <sodipodi:namedview
     pagecolor="#ffffff"
     bordercolor="#666666"
     borderopacity="1"
     objecttolerance="10"
     gridtolerance="10"
     guidetolerance="10"
     inkscape:pageopacity="0"
     inkscape:pageshadow="2"
     inkscape:window-width="2009"
     inkscape:window-height="1429"
     id="namedview6318"
     showgrid="false"
     inkscape:zoom="0.50000001"
     inkscape:cx="-420.44665"
     inkscape:cy="329.80634"
     inkscape:window-x="0"
     inkscape:window-y="0"
     inkscape:window-maximized="0"
     inkscape:current-layer="svg6316"
     fit-margin-top="0"
     fit-margin-left="0"
     fit-margin-right="0"
     fit-margin-bottom="0" />
  <desc
     id="desc4">Created with Takin (https://dx.doi.org/10.5281/zenodo.4117437)</desc>
  <defs
     id="defs6" />
  <path
     d="M 191.49071,568.48071 H 3.0007119 v -188.49 H 191.49071 v 188.49"
     id="path822"
     inkscape:connector-curvature="0"
     style="font-style:normal;font-weight:400;font-size:10px;font-family:'DejaVu Sans';vector-effect:none;fill:none;fill-rule:evenodd;stroke:#000000;stroke-width:6.00142384;stroke-linecap:square;stroke-linejoin:bevel;stroke-miterlimit:4;stroke-dasharray:none;stroke-opacity:1" />
  <path
     d="M 191.49071,379.99071 H 3.0007119 v -188.5 H 191.49071 v 188.5"
     id="path824"
     inkscape:connector-curvature="0"
     style="font-style:normal;font-weight:400;font-size:10px;font-family:'DejaVu Sans';vector-effect:none;fill:none;fill-rule:evenodd;stroke:#000000;stroke-width:6.00142384;stroke-linecap:square;stroke-linejoin:bevel;stroke-miterlimit:4;stroke-dasharray:none;stroke-opacity:1" />
  <path
     d="M 191.49071,191.49071 H 3.0007119 V 3.0007119 H 191.49071 V 191.49071"
     id="path826"
     inkscape:connector-curvature="0"
     style="font-style:normal;font-weight:400;font-size:10px;font-family:'DejaVu Sans';vector-effect:none;fill:none;fill-rule:evenodd;stroke:#000000;stroke-width:6.00142384;stroke-linecap:square;stroke-linejoin:bevel;stroke-miterlimit:4;stroke-dasharray:none;stroke-opacity:1" />
  <path
     d="m 379.99071,568.48071 h -188.5 v -188.49 h 188.5 v 188.49"
     id="path864"
     inkscape:connector-curvature="0"
     style="font-style:normal;font-weight:400;font-size:10px;font-family:'DejaVu Sans';vector-effect:none;fill:none;fill-rule:evenodd;stroke:#000000;stroke-width:6.00142384;stroke-linecap:square;stroke-linejoin:bevel;stroke-miterlimit:4;stroke-dasharray:none;stroke-opacity:1" />
  <path
     d="m 379.99071,379.99071 h -188.5 v -188.5 h 188.5 v 188.5"
     id="path866"
     inkscape:connector-curvature="0"
     style="font-style:normal;font-weight:400;font-size:10px;font-family:'DejaVu Sans';vector-effect:none;fill:none;fill-rule:evenodd;stroke:#000000;stroke-width:6.00142384;stroke-linecap:square;stroke-linejoin:bevel;stroke-miterlimit:4;stroke-dasharray:none;stroke-opacity:1" />
  <path
     d="m 379.99071,191.49071 h -188.5 V 3.0007119 h 188.5 V 191.49071"
     id="path868"
     inkscape:connector-curvature="0"
     style="font-style:normal;font-weight:400;font-size:10px;font-family:'DejaVu Sans';vector-effect:none;fill:none;fill-rule:evenodd;stroke:#000000;stroke-width:6.00142384;stroke-linecap:square;stroke-linejoin:bevel;stroke-miterlimit:4;stroke-dasharray:none;stroke-opacity:1" />
  <path
     d="m 568.48071,568.48071 h -188.49 v -188.49 h 188.49 v 188.49"
     id="path906"
     inkscape:connector-curvature="0"
     style="font-style:normal;font-weight:400;font-size:10px;font-family:'DejaVu Sans';vector-effect:none;fill:none;fill-rule:evenodd;stroke:#000000;stroke-width:6.00142384;stroke-linecap:square;stroke-linejoin:bevel;stroke-miterlimit:4;stroke-dasharray:none;stroke-opacity:1" />
  <path
     d="m 568.48071,379.99071 h -188.49 v -188.5 h 188.49 v 188.5"
     id="path908"
     inkscape:connector-curvature="0"
     style="font-style:normal;font-weight:400;font-size:10px;font-family:'DejaVu Sans';vector-effect:none;fill:none;fill-rule:evenodd;stroke:#000000;stroke-width:6.00142384;stroke-linecap:square;stroke-linejoin:bevel;stroke-miterlimit:4;stroke-dasharray:none;stroke-opacity:1" />
  <path
     d="m 568.48071,191.49071 h -188.49 V 3.0007119 h 188.49 V 191.49071"
     id="path910"
     inkscape:connector-curvature="0"
     style="font-style:normal;font-weight:400;font-size:10px;font-family:'DejaVu Sans';vector-effect:none;fill:none;fill-rule:evenodd;stroke:#000000;stroke-width:6.00142384;stroke-linecap:square;stroke-linejoin:bevel;stroke-miterlimit:4;stroke-dasharray:none;stroke-opacity:1" />
  <g
     style="font-style:normal;font-weight:400;font-size:10px;font-family:'DejaVu Sans';fill:#ff0000;fill-opacity:1;fill-rule:evenodd;stroke:#000000;stroke-width:6.00142384;stroke-linecap:square;stroke-linejoin:bevel;stroke-miterlimit:4;stroke-dasharray:none;stroke-opacity:1"
     id="g5776"
     font-style="normal"
     font-weight="400"
     font-size="10"
     transform="translate(96.880712,474.59971)">
    <circle
       id="circle5774"
       r="1"
       cy="0"
       cx="0"
       style="stroke:#000000;stroke-width:6.00142384;stroke-miterlimit:4;stroke-dasharray:none;stroke-opacity:1" />
  </g>
  <g
     style="font-style:normal;font-weight:400;font-size:10px;font-family:'DejaVu Sans';fill:#ff0000;fill-opacity:1;fill-rule:evenodd;stroke:#000000;stroke-width:6.00142384;stroke-linecap:square;stroke-linejoin:bevel;stroke-miterlimit:4;stroke-dasharray:none;stroke-opacity:1"
     id="g5788"
     font-style="normal"
     font-weight="400"
     font-size="10"
     transform="translate(96.880712,286.14871)">
    <circle
       id="circle5786"
       r="1"
       cy="0"
       cx="0"
       style="stroke:#000000;stroke-width:6.00142384;stroke-miterlimit:4;stroke-dasharray:none;stroke-opacity:1" />
  </g>
  <g
     style="font-style:normal;font-weight:400;font-size:10px;font-family:'DejaVu Sans';fill:#000000;fill-opacity:1;fill-rule:evenodd;stroke:#000000;stroke-width:6.00142384;stroke-linecap:square;stroke-linejoin:bevel;stroke-miterlimit:4;stroke-dasharray:none;stroke-opacity:1"
     id="g5800"
     font-style="normal"
     font-weight="400"
     font-size="10"
     transform="translate(96.880712,97.698322)">
    <circle
       id="circle5798"
       r="1"
       cy="0"
       cx="0"
       style="fill:#000000;fill-opacity:1;stroke:#000000;stroke-width:6.00142384;stroke-miterlimit:4;stroke-dasharray:none;stroke-opacity:1" />
  </g>
  <g
     style="font-style:normal;font-weight:400;font-size:10px;font-family:'DejaVu Sans';fill:#ff0000;fill-opacity:1;fill-rule:evenodd;stroke:#000000;stroke-width:6.00142384;stroke-linecap:square;stroke-linejoin:bevel;stroke-miterlimit:4;stroke-dasharray:none;stroke-opacity:1"
     id="g6028"
     font-style="normal"
     font-weight="400"
     font-size="10"
     transform="translate(285.33071,474.59971)">
    <circle
       id="circle6026"
       r="1"
       cy="0"
       cx="0"
       style="stroke:#000000;stroke-width:6.00142384;stroke-miterlimit:4;stroke-dasharray:none;stroke-opacity:1" />
  </g>
  <g
     style="font-style:normal;font-weight:400;font-size:10px;font-family:'DejaVu Sans';fill:#ff0000;fill-opacity:1;fill-rule:evenodd;stroke:#000000;stroke-width:6.00142384;stroke-linecap:square;stroke-linejoin:bevel;stroke-miterlimit:4;stroke-dasharray:none;stroke-opacity:1"
     id="g6040"
     font-style="normal"
     font-weight="400"
     font-size="10"
     transform="translate(285.33071,286.14871)">
    <circle
       id="circle6038"
       r="1"
       cy="0"
       cx="0"
       style="stroke:#000000;stroke-width:6.00142384;stroke-miterlimit:4;stroke-dasharray:none;stroke-opacity:1" />
  </g>
  <g
     style="font-style:normal;font-weight:400;font-size:10px;font-family:'DejaVu Sans';fill:#ff0000;fill-opacity:1;fill-rule:evenodd;stroke:#000000;stroke-width:6.00142384;stroke-linecap:square;stroke-linejoin:bevel;stroke-miterlimit:4;stroke-dasharray:none;stroke-opacity:1"
     id="g6052"
     font-style="normal"
     font-weight="400"
     font-size="10"
     transform="translate(285.33071,97.698322)">
    <circle
       id="circle6050"
       r="1"
       cy="0"
       cx="0"
       style="stroke:#000000;stroke-width:6.00142384;stroke-miterlimit:4;stroke-dasharray:none;stroke-opacity:1" />
  </g>
  <g
     style="font-style:normal;font-weight:400;font-size:10px;font-family:'DejaVu Sans';fill:#ff0000;fill-opacity:1;fill-rule:evenodd;stroke:#000000;stroke-width:6.00142384;stroke-linecap:square;stroke-linejoin:bevel;stroke-miterlimit:4;stroke-dasharray:none;stroke-opacity:1"
     id="g6280"
     font-style="normal"
     font-weight="400"
     font-size="10"
     transform="translate(473.78071,474.59971)">
    <circle
       id="circle6278"
       r="1"
       cy="0"
       cx="0"
       style="stroke:#000000;stroke-width:6.00142384;stroke-miterlimit:4;stroke-dasharray:none;stroke-opacity:1" />
  </g>
  <g
     style="font-style:normal;font-weight:400;font-size:10px;font-family:'DejaVu Sans';fill:#ff0000;fill-opacity:1;fill-rule:evenodd;stroke:#000000;stroke-width:6.00142384;stroke-linecap:square;stroke-linejoin:bevel;stroke-miterlimit:4;stroke-dasharray:none;stroke-opacity:1"
     id="g6292"
     font-style="normal"
     font-weight="400"
     font-size="10"
     transform="translate(473.78071,286.14871)">
    <circle
       id="circle6290"
       r="1"
       cy="0"
       cx="0"
       style="stroke:#000000;stroke-width:6.00142384;stroke-miterlimit:4;stroke-dasharray:none;stroke-opacity:1" />
  </g>
  <g
     style="font-style:normal;font-weight:400;font-size:10px;font-family:'DejaVu Sans';fill:#ff0000;fill-opacity:1;fill-rule:evenodd;stroke:#000000;stroke-width:6.00142384;stroke-linecap:square;stroke-linejoin:bevel;stroke-miterlimit:4;stroke-dasharray:none;stroke-opacity:1"
     id="g6304"
     font-style="normal"
     font-weight="400"
     font-size="10"
     transform="translate(473.78071,97.698322)">
    <circle
       id="circle6302"
       r="1"
       cy="0"
       cx="0"
       style="stroke:#000000;stroke-width:6.00142384;stroke-miterlimit:4;stroke-dasharray:none;stroke-opacity:1" />
  </g>
  <path
     style="opacity:1;vector-effect:none;fill:#000000;fill-opacity:1;stroke:#000000;stroke-width:1.06091177;stroke-linecap:square;stroke-linejoin:bevel;stroke-miterlimit:4;stroke-dasharray:none;stroke-dashoffset:0;stroke-opacity:1"
     d="m 95.939349,99.356267 c -1.513582,-0.95043 -1.135499,-3.21263 0.591065,-3.536541 1.980125,-0.371474 3.103134,2.24481 1.47554,3.437578 -0.528282,0.387144 -1.531188,0.435171 -2.066605,0.09896 z m 1.827449,-1.074735 c 0.21425,-0.400325 0.149037,-1.036468 -0.135407,-1.320913 -0.338023,-0.338023 -1.063835,-0.346455 -1.470589,-0.0171 -0.591148,0.478681 -0.288781,1.651997 0.456678,1.772085 0.414308,0.06677 0.99959,-0.154319 1.149318,-0.43409 z"
     id="path1798"
     inkscape:connector-curvature="0" />
  <path
     style="opacity:1;vector-effect:none;fill:#000000;fill-opacity:1;stroke:#000000;stroke-width:1.06091177;stroke-linecap:square;stroke-linejoin:bevel;stroke-miterlimit:4;stroke-dasharray:none;stroke-dashoffset:0;stroke-opacity:1"
     d="m 96.257184,286.79838 c -0.550098,-0.5501 -0.155677,-1.59136 0.602791,-1.59136 0.396754,0 0.988577,0.54141 0.988577,0.90438 0,0.78128 -1.045666,1.23268 -1.591368,0.68698 z"
     id="path1800"
     inkscape:connector-curvature="0" />
  <path
     style="opacity:1;vector-effect:none;fill:#000000;fill-opacity:1;stroke:#000000;stroke-width:1.06091177;stroke-linecap:square;stroke-linejoin:bevel;stroke-miterlimit:4;stroke-dasharray:none;stroke-dashoffset:0;stroke-opacity:1"
     d="m 95.943738,287.11184 c -0.270537,-0.27054 -0.349621,-0.48005 -0.349621,-0.92621 0,-1.58061 1.881229,-1.93445 2.585444,-0.48629 0.181895,0.37405 0.184138,0.48113 0.01838,0.87782 -0.250612,0.59979 -0.686691,0.88429 -1.355429,0.88429 -0.416537,0 -0.633608,-0.0844 -0.898788,-0.34961 z"
     id="path1806"
     inkscape:connector-curvature="0" />
  <path
     style="opacity:1;vector-effect:none;fill:#000000;fill-opacity:1;stroke:#000000;stroke-width:1.06091177;stroke-linecap:square;stroke-linejoin:bevel;stroke-miterlimit:4;stroke-dasharray:none;stroke-dashoffset:0;stroke-opacity:1"
     d="m 96.406117,287.84801 c -1.554684,-0.32881 -1.686415,-2.76422 -0.183486,-3.39219 0.847319,-0.35403 1.878303,0.094 2.36006,1.02563 0.260762,0.50425 0.244663,0.83066 -0.07149,1.4504 -0.385539,0.75571 -1.195979,1.10843 -2.105074,0.91616 z"
     id="path1808"
     inkscape:connector-curvature="0" />
  <path
     style="opacity:1;vector-effect:none;fill:#000000;fill-opacity:1;stroke:#000000;stroke-width:0.13261397;stroke-linecap:square;stroke-linejoin:bevel;stroke-miterlimit:4;stroke-dasharray:none;stroke-dashoffset:0;stroke-opacity:1"
     d="m 96.654231,476.57968 c -0.296268,-0.0371 -0.626744,-0.15917 -0.874595,-0.32318 -0.176787,-0.11698 -0.434233,-0.37008 -0.540803,-0.53168 -0.160366,-0.24318 -0.27281,-0.5177 -0.317866,-0.77604 -0.03271,-0.1874 -0.03271,-0.51097 0,-0.69837 0.100262,-0.57494 0.477309,-1.10306 0.993656,-1.39182 0.149143,-0.0834 0.422921,-0.18284 0.597067,-0.21684 0.198399,-0.0387 0.563353,-0.0384 0.745954,7.5e-4 0.654733,0.14028 1.180608,0.56048 1.440125,1.15073 0.244002,0.55496 0.230979,1.1477 -0.03713,1.69069 -0.2723,0.55142 -0.786277,0.94542 -1.395826,1.07 -0.161521,0.033 -0.453971,0.0454 -0.610563,0.0257 z m 0.545395,-1.02593 c 0.711123,-0.24459 0.917482,-1.15295 0.3807,-1.67579 -0.102519,-0.0999 -0.24155,-0.18471 -0.3807,-0.23234 -0.147876,-0.0506 -0.400926,-0.0626 -0.547143,-0.0259 -0.45508,0.11427 -0.778422,0.52128 -0.778422,0.97986 0,0.45076 0.315525,0.85565 0.761948,0.97776 0.13447,0.0367 0.423213,0.0247 0.563617,-0.0236 z"
     id="path1810"
     inkscape:connector-curvature="0" />
  <path
     style="opacity:1;vector-effect:none;fill:#000000;fill-opacity:1;stroke:#000000;stroke-width:0.13261397;stroke-linecap:square;stroke-linejoin:bevel;stroke-miterlimit:4;stroke-dasharray:none;stroke-dashoffset:0;stroke-opacity:1"
     d="m 96.575132,475.47985 c -0.141438,-0.0526 -0.248204,-0.12468 -0.365636,-0.24698 -0.340251,-0.35434 -0.345772,-0.89591 -0.01275,-1.25322 0.123554,-0.13256 0.25263,-0.21755 0.404631,-0.26643 0.102451,-0.0329 0.142676,-0.0368 0.321563,-0.0308 0.200178,0.007 0.207515,0.008 0.350461,0.0769 0.592566,0.28433 0.719488,1.04322 0.251445,1.50343 -0.194469,0.19121 -0.370438,0.25764 -0.678274,0.25608 -0.134027,-6.9e-4 -0.19032,-0.009 -0.271422,-0.0389 z"
     id="path1812"
     inkscape:connector-curvature="0" />
  <path
     style="opacity:1;vector-effect:none;fill:#000000;fill-opacity:1;stroke:#000000;stroke-width:0.26522794;stroke-linecap:square;stroke-linejoin:bevel;stroke-miterlimit:4;stroke-dasharray:none;stroke-dashoffset:0;stroke-opacity:1"
     d="m 284.8245,476.51744 c -0.71912,-0.19745 -1.27515,-0.78317 -1.43132,-1.50775 -0.18805,-0.87253 0.26074,-1.79201 1.0664,-2.18484 0.78009,-0.38035 1.64888,-0.22876 2.27252,0.39651 0.30078,0.30157 0.45873,0.59834 0.54382,1.02176 0.19289,0.95989 -0.39869,1.94117 -1.35176,2.24225 -0.21164,0.0668 -0.32546,0.082 -0.59937,0.0796 -0.18596,-0.002 -0.41109,-0.023 -0.50029,-0.0475 z m 0.84631,-0.96769 c 0.24494,-0.0781 0.52571,-0.35602 0.60705,-0.60092 0.12769,-0.38443 0.0203,-0.83772 -0.25827,-1.08932 -0.21176,-0.19131 -0.39536,-0.25853 -0.70137,-0.25678 -0.30894,0.002 -0.51243,0.0871 -0.71946,0.30174 -0.34103,0.35355 -0.36749,0.9369 -0.0602,1.32755 0.25552,0.32485 0.70994,0.45236 1.13225,0.31773 z"
     id="path1814"
     inkscape:connector-curvature="0" />
  <path
     style="opacity:1;vector-effect:none;fill:#000000;fill-opacity:1;stroke:#000000;stroke-width:0.26522794;stroke-linecap:square;stroke-linejoin:bevel;stroke-miterlimit:4;stroke-dasharray:none;stroke-dashoffset:0;stroke-opacity:1"
     d="m 284.95478,475.3725 c -0.28155,-0.14045 -0.44466,-0.3802 -0.47326,-0.69565 -0.0462,-0.50985 0.33204,-0.92919 0.83492,-0.92554 0.36929,0.003 0.62186,0.15201 0.77032,0.45542 0.1108,0.22647 0.1241,0.54825 0.0307,0.7426 -0.0803,0.16711 -0.26931,0.35462 -0.43188,0.42845 -0.18805,0.0854 -0.55433,0.0828 -0.73081,-0.005 z"
     id="path1816"
     inkscape:connector-curvature="0" />
  <path
     style="opacity:1;vector-effect:none;fill:#000000;fill-opacity:1;stroke:#000000;stroke-width:0.53045589;stroke-linecap:square;stroke-linejoin:bevel;stroke-miterlimit:4;stroke-dasharray:none;stroke-dashoffset:0;stroke-opacity:1"
     d="m 284.79608,286.94044 c -0.22858,-0.15532 -0.45496,-0.5597 -0.45496,-0.81268 0,-0.0607 0.0596,-0.23362 0.13262,-0.38429 0.24832,-0.51296 0.88831,-0.71285 1.32681,-0.41441 0.34138,0.23235 0.48557,0.47008 0.48557,0.80059 0,0.7765 -0.85546,1.242 -1.49004,0.81079 z"
     id="path1818"
     inkscape:connector-curvature="0" />
  <path
     style="opacity:1;vector-effect:none;fill:#000000;fill-opacity:1;stroke:#000000;stroke-width:0.53045589;stroke-linecap:square;stroke-linejoin:bevel;stroke-miterlimit:4;stroke-dasharray:none;stroke-dashoffset:0;stroke-opacity:1"
     d="m 284.50629,287.90877 c -1.24185,-0.58749 -1.52132,-2.16843 -0.55429,-3.13546 0.75618,-0.75617 1.95994,-0.77768 2.71138,-0.0485 1.00105,0.97149 0.76351,2.54889 -0.47721,3.16888 -0.55983,0.27975 -1.1099,0.28467 -1.67988,0.015 z m 1.47607,-0.71283 c 0.21954,-0.12866 0.33373,-0.25827 0.45275,-0.51388 0.26631,-0.57197 0.18478,-1.0091 -0.26565,-1.42429 -0.62712,-0.57806 -1.51839,-0.41989 -1.93397,0.34323 -0.22854,0.41966 -0.20077,0.85524 0.0798,1.25092 0.38179,0.5385 1.08694,0.68402 1.6671,0.34402 z"
     id="path1820"
     inkscape:connector-curvature="0" />
  <path
     style="opacity:1;vector-effect:none;fill:#000000;fill-opacity:1;stroke:#000000;stroke-width:0.18754449;stroke-linecap:square;stroke-linejoin:bevel;stroke-miterlimit:4;stroke-dasharray:none;stroke-dashoffset:0;stroke-opacity:1"
     d="m 284.92975,99.645776 c -0.69647,-0.156142 -1.25181,-0.647321 -1.47553,-1.305077 -0.36597,-1.075988 0.21813,-2.202343 1.32315,-2.551521 0.2056,-0.06497 0.65637,-0.08941 0.89206,-0.04839 0.75794,0.131986 1.34052,0.659556 1.57313,1.42458 0.0551,0.181438 0.0627,0.245654 0.0627,0.53442 0,0.290034 -0.007,0.352741 -0.0638,0.53919 -0.20601,0.680547 -0.70568,1.178455 -1.37793,1.373088 -0.22632,0.06557 -0.71332,0.0831 -0.93371,0.03368 z m 0.65342,-0.975539 c 0.52515,-0.118348 0.86309,-0.696135 0.72046,-1.231807 -0.13053,-0.490242 -0.62536,-0.815774 -1.11916,-0.736255 -0.8187,0.131851 -1.14755,1.111419 -0.57121,1.701479 0.24991,0.255855 0.59574,0.350911 0.96991,0.266583 z"
     id="path1828"
     inkscape:connector-curvature="0" />
  <path
     style="opacity:1;vector-effect:none;fill:#000000;fill-opacity:1;stroke:#000000;stroke-width:0.18754449;stroke-linecap:square;stroke-linejoin:bevel;stroke-miterlimit:4;stroke-dasharray:none;stroke-dashoffset:0;stroke-opacity:1"
     d="m 285.10284,98.569278 c -0.23951,-0.05814 -0.46522,-0.2435 -0.58766,-0.482649 -0.0605,-0.118319 -0.066,-0.150186 -0.066,-0.386815 0,-0.238466 0.005,-0.268046 0.0685,-0.393033 0.0854,-0.168565 0.27639,-0.351788 0.4531,-0.434601 0.11681,-0.05476 0.16468,-0.06316 0.35757,-0.06316 0.20016,0 0.23814,0.0075 0.37516,0.07224 0.47268,0.22401 0.65824,0.763403 0.42218,1.227216 -0.19236,0.377954 -0.60262,0.562798 -1.02278,0.460834 z"
     id="path1830"
     inkscape:connector-curvature="0" />
  <path
     style="opacity:1;vector-effect:none;fill:#000000;fill-opacity:1;stroke:#000000;stroke-width:0.26522794;stroke-linecap:square;stroke-linejoin:bevel;stroke-miterlimit:4;stroke-dasharray:none;stroke-dashoffset:0;stroke-opacity:1"
     d="m 473.29386,476.51954 c -0.31975,-0.0836 -0.66174,-0.27842 -0.89803,-0.51157 -0.78949,-0.77898 -0.78949,-2.03908 0,-2.81805 0.36866,-0.36375 0.85866,-0.56407 1.37744,-0.56312 0.56344,7.5e-4 1.00655,0.18782 1.41034,0.59449 0.39618,0.39902 0.57071,0.82659 0.56937,1.39485 -10e-4,0.5619 -0.21839,1.0499 -0.64105,1.44121 -0.22476,0.20809 -0.54869,0.3847 -0.8477,0.46218 -0.24801,0.0643 -0.72458,0.0643 -0.97037,1e-5 z m 0.83852,-0.97599 c 0.23105,-0.0864 0.41583,-0.24725 0.53841,-0.46856 0.0886,-0.16006 0.0984,-0.20723 0.0984,-0.47605 0,-0.26881 -0.01,-0.31598 -0.0984,-0.47604 -0.40446,-0.73021 -1.44751,-0.69921 -1.81043,0.0538 -0.0911,0.18902 -0.10813,0.58629 -0.033,0.77035 0.21756,0.53322 0.78319,0.79175 1.30506,0.5965 z"
     id="path1832"
     inkscape:connector-curvature="0" />
  <path
     style="opacity:1;vector-effect:none;fill:#000000;fill-opacity:1;stroke:#000000;stroke-width:0.26522794;stroke-linecap:square;stroke-linejoin:bevel;stroke-miterlimit:4;stroke-dasharray:none;stroke-dashoffset:0;stroke-opacity:1"
     d="m 473.6254,475.44627 c -0.51609,-0.10419 -0.81293,-0.6159 -0.65775,-1.13382 0.0545,-0.1819 0.24437,-0.38894 0.44041,-0.48022 0.19577,-0.0912 0.51856,-0.10611 0.69546,-0.0322 0.15321,0.064 0.37569,0.27164 0.45257,0.42234 0.0887,0.17388 0.0889,0.57884 4e-4,0.75235 -0.17083,0.33484 -0.58051,0.54232 -0.93109,0.47154 z"
     id="path1834"
     inkscape:connector-curvature="0" />
  <path
     style="opacity:1;vector-effect:none;fill:#000000;fill-opacity:1;stroke:#000000;stroke-width:0.37508899;stroke-linecap:square;stroke-linejoin:bevel;stroke-miterlimit:4;stroke-dasharray:none;stroke-dashoffset:0;stroke-opacity:1"
     d="m 473.2802,288.0515 c -1.4591,-0.38096 -1.95799,-2.22514 -0.89068,-3.29245 0.76973,-0.76972 2.0027,-0.77013 2.77151,-7.5e-4 0.31158,0.31175 0.49834,0.67321 0.5694,1.10204 0.16824,1.01529 -0.56403,2.0367 -1.59857,2.22977 -0.3385,0.0632 -0.48829,0.0564 -0.85166,-0.0385 z m 0.93025,-0.9885 c 0.365,-0.18775 0.57249,-0.5205 0.57249,-0.91811 0,-0.56802 -0.44029,-1.00851 -1.00805,-1.00851 -1.07433,0 -1.39743,1.47559 -0.42197,1.92721 0.24821,0.11492 0.63349,0.11465 0.85753,-5.9e-4 z"
     id="path1836"
     inkscape:connector-curvature="0" />
  <path
     style="opacity:1;vector-effect:none;fill:#000000;fill-opacity:1;stroke:#000000;stroke-width:0.37508899;stroke-linecap:square;stroke-linejoin:bevel;stroke-miterlimit:4;stroke-dasharray:none;stroke-dashoffset:0;stroke-opacity:1"
     d="m 473.6031,286.91884 c -0.38497,-0.0708 -0.60138,-0.34119 -0.60166,-0.7517 -3.8e-4,-0.56956 0.45274,-0.9395 0.97762,-0.79817 0.37802,0.10179 0.58284,0.37779 0.58284,0.78538 0,0.52229 -0.42656,0.86241 -0.9588,0.76449 z"
     id="path1838"
     inkscape:connector-curvature="0" />
  <path
     style="opacity:1;vector-effect:none;fill:#000000;fill-opacity:1;stroke:#000000;stroke-width:0.18754449;stroke-linecap:square;stroke-linejoin:bevel;stroke-miterlimit:4;stroke-dasharray:none;stroke-dashoffset:0;stroke-opacity:1"
     d="m 473.36808,99.644051 c -0.50075,-0.113967 -0.94083,-0.408525 -1.22113,-0.817349 -0.10306,-0.150299 -0.24735,-0.46253 -0.29441,-0.637022 -0.0646,-0.239434 -0.0722,-0.619954 -0.0178,-0.882164 0.12828,-0.617606 0.56425,-1.171163 1.11378,-1.41419 0.30791,-0.136173 0.45117,-0.164717 0.82517,-0.164387 0.40981,3.53e-4 0.54161,0.02873 0.87002,0.187109 0.69552,0.335495 1.11619,1.006844 1.11619,1.781328 0,0.888916 -0.55946,1.639312 -1.42358,1.909458 -0.21531,0.06729 -0.74634,0.08772 -0.96827,0.03721 z m 0.60797,-0.960671 c 0.42095,-0.08922 0.71903,-0.396176 0.79732,-0.821062 0.0779,-0.422876 -0.15378,-0.873102 -0.54848,-1.065838 -0.28532,-0.139316 -0.60478,-0.13645 -0.89716,0.008 -0.20662,0.102114 -0.36187,0.261857 -0.46396,0.477353 -0.0699,0.147583 -0.0746,0.174101 -0.0746,0.416709 0,0.252247 0.002,0.263793 0.0881,0.437399 0.14475,0.292892 0.42105,0.504382 0.72502,0.554951 0.17778,0.02956 0.2008,0.02911 0.3738,-0.0076 z"
     id="path1840"
     inkscape:connector-curvature="0" />
  <path
     style="opacity:1;vector-effect:none;fill:#000000;fill-opacity:1;stroke:#000000;stroke-width:0.18754449;stroke-linecap:square;stroke-linejoin:bevel;stroke-miterlimit:4;stroke-dasharray:none;stroke-dashoffset:0;stroke-opacity:1"
     d="m 473.56133,98.579315 c -0.23498,-0.06069 -0.47776,-0.265112 -0.59609,-0.501914 -0.0647,-0.129428 -0.0707,-0.16152 -0.0707,-0.380025 0,-0.218924 0.006,-0.250454 0.0712,-0.381128 0.34022,-0.680839 1.28891,-0.686803 1.62201,-0.0102 0.0713,0.144762 0.0768,0.172751 0.0768,0.39133 0,0.218572 -0.005,0.246561 -0.0768,0.391323 -0.0966,0.196224 -0.28124,0.37061 -0.46838,0.442365 -0.14449,0.05536 -0.43364,0.0804 -0.55809,0.04824 z"
     id="path1842"
     inkscape:connector-curvature="0" />
</svg>
